<svg xmlns="http://www.w3.org/2000/svg" xmlns:xlink="http://www.w3.org/1999/xlink" viewBox="0 0 266.22 338.83"><defs><style>.cls-1{fill:#d7cbd4;}.cls-2{fill:#cbd4ed;}.cls-3{fill:#f2665d;}.cls-4{fill:#f7736a;}.cls-5{fill:none;}.cls-6{fill:#9d9ece;}.cls-7{fill:#f0f0f2;}.cls-8{isolation:isolate;}.cls-9{clip-path:url(#clip-path);}.cls-10{fill:#ded2da;}.cls-11{clip-path:url(#clip-path-2);}.cls-12{clip-path:url(#clip-path-3);}.cls-13{clip-path:url(#clip-path-4);}.cls-14{clip-path:url(#clip-path-5);}.cls-15{fill:url(#New_Gradient_Swatch_copy);}.cls-16{fill:#4b3154;}.cls-17{fill:#f0eaee;}.cls-18,.cls-19{opacity:0.6;mix-blend-mode:multiply;}.cls-18{fill:url(#New_Gradient_Swatch_copy_4);}.cls-19{fill:url(#New_Gradient_Swatch_copy_4-2);}.cls-20{clip-path:url(#clip-path-6);}.cls-21{clip-path:url(#clip-path-7);}.cls-22{fill:#5f639b;}.cls-23{clip-path:url(#clip-path-8);}.cls-24{fill:#ebe0e7;}.cls-25{fill:#7579b6;}.cls-26{fill:#73597b;}.cls-27{fill:#beafbe;}.cls-28{fill:#b4bce2;}.cls-29{fill:#838dc1;}.cls-30{fill:#ac9bae;}.cls-31{fill:#d54c41;}.cls-32{clip-path:url(#clip-path-9);}.cls-33{clip-path:url(#clip-path-10);}.cls-34{clip-path:url(#clip-path-11);}.cls-35{clip-path:url(#clip-path-12);}.cls-36{clip-path:url(#clip-path-13);}.cls-37{clip-path:url(#clip-path-14);}.cls-38{clip-path:url(#clip-path-15);}.cls-39{clip-path:url(#clip-path-16);}.cls-40{fill:#ffc7ad;}.cls-41{fill:#fef4f1;}.cls-42{fill:#62476a;}.cls-43{fill:#f3a984;}.cls-44{fill:#62cbe4;}.cls-45{fill:#ffbfa2;}.cls-46{clip-path:url(#clip-path-17);}.cls-47{clip-path:url(#clip-path-18);}.cls-48{clip-path:url(#clip-path-19);}.cls-49{clip-path:url(#clip-path-20);}.cls-50{clip-path:url(#clip-path-21);}.cls-51{clip-path:url(#clip-path-22);}.cls-52{clip-path:url(#clip-path-23);}.cls-53{clip-path:url(#clip-path-24);}</style><clipPath id="clip-path" transform="translate(-91.89 -55.58)"><path class="cls-1" d="M358.11,292.6c0,.68,0,.77-.08,1.18a7.6,7.6,0,0,1-.23,1.16,8.87,8.87,0,0,1-1,2.36,9.42,9.42,0,0,1-1.41,1.78,14.13,14.13,0,0,1-1.1.95c-.34.25-.82.55-1.18.78a2.87,2.87,0,0,0,.92-2.49C356.74,296.75,358.1,294.68,358.11,292.6Z"/></clipPath><clipPath id="clip-path-2" transform="translate(-91.89 -55.58)"><path class="cls-2" d="M111.05,336.33l157.28-91.4a1,1,0,0,1,1,0L112.1,336.38A1,1,0,0,0,111.05,336.33Z"/></clipPath><clipPath id="clip-path-3" transform="translate(-91.89 -55.58)"><path class="cls-1" d="M353.12,300.81l-15.72,9.13-15.73,9.14-15.73,9.14-15.73,9.14-15.72,9.14-15.73,9.14L243,364.78l-15.73,9.14-15.72,9.14-15.73,9.14a2.83,2.83,0,0,0,.91-2.48L354,298.32A2.88,2.88,0,0,1,353.12,300.81Z"/></clipPath><clipPath id="clip-path-4" transform="translate(-91.89 -55.58)"><path class="cls-1" d="M177.78,392.21l-6.66-3.85-6.67-3.85-6.67-3.85-6.67-3.85L144.44,373l-6.67-3.85-6.67-3.85-6.66-3.85-6.67-3.85-6.67-3.85a2.87,2.87,0,0,1-.9-2.49l66.68,38.5A2.87,2.87,0,0,0,177.78,392.21Z"/></clipPath><clipPath id="clip-path-5" transform="translate(-91.89 -55.58)"><path class="cls-1" d="M195.85,392.2l-.75.41c-.27.13-.63.3-.91.41-.5.2-1.18.43-1.69.6-.29.09-.67.18-.95.25a20.75,20.75,0,0,1-4.73.53,21.3,21.3,0,0,1-4.7-.52l-.92-.24c-.51-.17-1.2-.4-1.7-.59a16,16,0,0,1-1.72-.84,2.87,2.87,0,0,1-.9-2.49c5.49,3.16,14.44,3.16,19.88,0A2.83,2.83,0,0,1,195.85,392.2Z"/></clipPath><linearGradient id="New_Gradient_Swatch_copy" x1="2349.38" y1="379.75" x2="2155.08" y2="262.92" gradientTransform="matrix(-1, 0, 0, 1, 2473.03, 0)" gradientUnits="userSpaceOnUse"><stop offset="0" stop-color="#9796f0"/><stop offset="0.17" stop-color="#a09aee"/><stop offset="0.44" stop-color="#b8a6e7"/><stop offset="0.78" stop-color="#deb9dc"/><stop offset="1" stop-color="#fbc7d4"/></linearGradient><linearGradient id="New_Gradient_Swatch_copy_4" x1="-374.07" y1="129.45" x2="-339.15" y2="-46.69" gradientTransform="matrix(-1.26, -0.26, 0.26, 0.97, -299.54, 29.86)" gradientUnits="userSpaceOnUse"><stop offset="0" stop-color="#9796f0"/><stop offset="0.19" stop-color="#9f9ff1"/><stop offset="0.5" stop-color="#b3b7f5"/><stop offset="0.89" stop-color="#d5ddfa"/><stop offset="1" stop-color="#e0eafc"/></linearGradient><linearGradient id="New_Gradient_Swatch_copy_4-2" x1="-379.08" y1="133.23" x2="-344.16" y2="-42.91" xlink:href="#New_Gradient_Swatch_copy_4"/><clipPath id="clip-path-6" transform="translate(-91.89 -55.58)"><path class="cls-6" d="M241.94,60.88l2.67,1.55a3.79,3.79,0,0,0-3.8.37l-2.67-1.55A3.77,3.77,0,0,1,241.94,60.88Z"/></clipPath><clipPath id="clip-path-7" transform="translate(-91.89 -55.58)"><path class="cls-7" d="M111.62,276.31,109,274.76a3.72,3.72,0,0,1-1.56-3.42l2.67,1.56A3.72,3.72,0,0,0,111.62,276.31Z"/></clipPath><clipPath id="clip-path-8" transform="translate(-91.89 -55.58)"><path class="cls-7" d="M109.67,144.54,107,143a11.72,11.72,0,0,1,5.32-9.22l2.68,1.56A11.71,11.71,0,0,0,109.67,144.54Z"/></clipPath><clipPath id="clip-path-9" transform="translate(-91.89 -55.58)"><path class="cls-5" d="M263.62,197.13l6.62,3.85a4.1,4.1,0,0,1,1.66,2.91,13.25,13.25,0,0,1-.44,6.11l-6.62-3.85a13.24,13.24,0,0,0,.44-6.11A4.12,4.12,0,0,0,263.62,197.13Z"/></clipPath><clipPath id="clip-path-10" transform="translate(-91.89 -55.58)"><path class="cls-3" d="M245.87,214l6.62,3.85a8,8,0,0,1,3.18,3.31c.76,1.51,0,3.54-2.28,6l-6.62-3.85c2.28-2.49,3-4.52,2.28-6A8,8,0,0,0,245.87,214Z"/></clipPath><clipPath id="clip-path-11" transform="translate(-91.89 -55.58)"><path class="cls-3" d="M240.44,232.25l-6.62-3.85c1.32.77,3.37.67,5.89-.31a19,19,0,0,0,2.66-1.28,18.45,18.45,0,0,0,4.4-3.45l6.62,3.85a19.78,19.78,0,0,1-7.06,4.73C243.81,232.92,241.76,233,240.44,232.25Z"/></clipPath><clipPath id="clip-path-12" transform="translate(-91.89 -55.58)"><path class="cls-4" d="M240.41,232.31l-6.62-3.85a2.86,2.86,0,0,1-.67-.52,6.84,6.84,0,0,1-1.48-4.53,11.11,11.11,0,0,1,1.44-5.68,10.45,10.45,0,0,1,3.64-3.61,7.69,7.69,0,0,1,1.07-.5c2.61-.9,4.64-1.05,6.38-.45a9.07,9.07,0,0,1,1.73.79l6.62,3.84a9.7,9.7,0,0,0-1.73-.78c-1.74-.6-3.77-.45-6.39.45a6.18,6.18,0,0,0-1.06.5,10.47,10.47,0,0,0-3.65,3.61,11.11,11.11,0,0,0-1.43,5.68,6.77,6.77,0,0,0,1.48,4.52A2.9,2.9,0,0,0,240.41,232.31Z"/></clipPath><clipPath id="clip-path-13" transform="translate(-91.89 -55.58)"><path class="cls-5" d="M306.12,244.82l4.66,2.71a2.91,2.91,0,0,1,1.17,2.05,9.47,9.47,0,0,1-.31,4.3L307,251.17a9.46,9.46,0,0,0,.31-4.3A2.91,2.91,0,0,0,306.12,244.82Z"/></clipPath><clipPath id="clip-path-14" transform="translate(-91.89 -55.58)"><path class="cls-3" d="M293.62,256.7l4.66,2.71a5.66,5.66,0,0,1,2.25,2.33c.53,1.06,0,2.49-1.61,4.25l-4.66-2.71c1.6-1.75,2.14-3.18,1.61-4.25A5.78,5.78,0,0,0,293.62,256.7Z"/></clipPath><clipPath id="clip-path-15" transform="translate(-91.89 -55.58)"><path class="cls-3" d="M289.8,269.54l-4.66-2.71c.93.54,2.38.47,4.15-.22a13.34,13.34,0,0,0,1.87-.9,13,13,0,0,0,3.1-2.43l4.66,2.71a13.94,13.94,0,0,1-5,3.33C292.18,270,290.73,270.08,289.8,269.54Z"/></clipPath><clipPath id="clip-path-16" transform="translate(-91.89 -55.58)"><path class="cls-4" d="M289.78,269.58l-4.66-2.71a1.87,1.87,0,0,1-.47-.37,4.77,4.77,0,0,1-1-3.18,7.78,7.78,0,0,1,1-4,7.32,7.32,0,0,1,2.57-2.54,4.42,4.42,0,0,1,.74-.35,6.8,6.8,0,0,1,4.5-.32,7.09,7.09,0,0,1,1.22.55l4.66,2.71a7.09,7.09,0,0,0-1.22-.55,6.8,6.8,0,0,0-4.5.32,3.75,3.75,0,0,0-.74.35,7.32,7.32,0,0,0-2.57,2.54,7.68,7.68,0,0,0-1,4,4.77,4.77,0,0,0,1,3.18A1.87,1.87,0,0,0,289.78,269.58Z"/></clipPath><clipPath id="clip-path-17" transform="translate(-91.89 -55.58)"><path class="cls-5" d="M219.43,118.35l4.32,2.51a2.71,2.71,0,0,1,1.09,1.9,8.79,8.79,0,0,1-.29,4l-4.33-2.51a8.53,8.53,0,0,0,.29-4A2.65,2.65,0,0,0,219.43,118.35Z"/></clipPath><clipPath id="clip-path-18" transform="translate(-91.89 -55.58)"><path class="cls-3" d="M207.83,129.37l4.32,2.52a5.23,5.23,0,0,1,2.09,2.16c.49,1,0,2.31-1.49,3.94l-4.33-2.51c1.49-1.63,2-3,1.49-3.94A5.35,5.35,0,0,0,207.83,129.37Z"/></clipPath><clipPath id="clip-path-19" transform="translate(-91.89 -55.58)"><path class="cls-3" d="M204.29,141.29,200,138.77c.86.51,2.2.44,3.85-.2a11.47,11.47,0,0,0,1.73-.84,12,12,0,0,0,2.88-2.25l4.33,2.51a12.54,12.54,0,0,1-2.88,2.26,13.12,13.12,0,0,1-1.74.83C206.49,141.72,205.15,141.79,204.29,141.29Z"/></clipPath><clipPath id="clip-path-20" transform="translate(-91.89 -55.58)"><path class="cls-4" d="M204.26,141.32l-4.32-2.51a2.07,2.07,0,0,1-.44-.34,4.46,4.46,0,0,1-1-3,7.23,7.23,0,0,1,.93-3.71,6.89,6.89,0,0,1,2.39-2.36,3.79,3.79,0,0,1,.69-.32,6.32,6.32,0,0,1,4.17-.3,6.12,6.12,0,0,1,1.13.52l4.33,2.51a6.09,6.09,0,0,0-1.13-.51,6.31,6.31,0,0,0-4.17.29,4.81,4.81,0,0,0-.7.33,6.86,6.86,0,0,0-2.38,2.36,7.19,7.19,0,0,0-.94,3.71,4.45,4.45,0,0,0,1,2.95A1.58,1.58,0,0,0,204.26,141.32Z"/></clipPath><clipPath id="clip-path-21" transform="translate(-91.89 -55.58)"><path class="cls-5" d="M181.85,315.63l3.71,2.16a2.3,2.3,0,0,1,.93,1.63,7.26,7.26,0,0,1-.25,3.42l-3.71-2.15a7.31,7.31,0,0,0,.25-3.43A2.3,2.3,0,0,0,181.85,315.63Z"/></clipPath><clipPath id="clip-path-22" transform="translate(-91.89 -55.58)"><path class="cls-3" d="M171.9,325.09l3.71,2.16a4.46,4.46,0,0,1,1.78,1.85c.43.85,0,2-1.27,3.39l-3.71-2.16c1.27-1.4,1.7-2.54,1.27-3.38A4.48,4.48,0,0,0,171.9,325.09Z"/></clipPath><clipPath id="clip-path-23" transform="translate(-91.89 -55.58)"><path class="cls-3" d="M168.86,335.31l-3.71-2.15a4,4,0,0,0,3.3-.18,10.63,10.63,0,0,0,1.49-.71,10.83,10.83,0,0,0,2.47-1.94l3.71,2.16a11.08,11.08,0,0,1-2.47,1.93,10.7,10.7,0,0,1-1.49.72A3.94,3.94,0,0,1,168.86,335.31Z"/></clipPath><clipPath id="clip-path-24" transform="translate(-91.89 -55.58)"><path class="cls-4" d="M168.84,335.35l-3.71-2.16a1.57,1.57,0,0,1-.38-.3,3.84,3.84,0,0,1-.83-2.53,6.25,6.25,0,0,1,.81-3.18,5.9,5.9,0,0,1,2-2,4.47,4.47,0,0,1,.6-.28,5.43,5.43,0,0,1,3.58-.25,6.1,6.1,0,0,1,1,.44l3.71,2.16a5.36,5.36,0,0,0-1-.45,5.44,5.44,0,0,0-3.58.26,3.5,3.5,0,0,0-.6.28,5.86,5.86,0,0,0-2,2,6.2,6.2,0,0,0-.8,3.19,3.81,3.81,0,0,0,.82,2.53A1.86,1.86,0,0,0,168.84,335.35Z"/></clipPath></defs><g class="cls-8"><g id="Layer_1" data-name="Layer 1"><path class="cls-7" d="M285.69,244.84l.16,0h.09l.16,0h.08a1,1,0,0,1,.21.09l-.26-.15-.3-.15-.31-.17-.79-.35-.89-.34-.87-.27-.91-.24-.31-.07-.49-.1-.12,0h0a20.48,20.48,0,0,0-7.33,0l-.22,0-.93.19-.89.24-.92.29-.83.32a13.46,13.46,0,0,0-1.66.82h0l-7.87,4.57-7.86,4.57-7.86,4.57-7.87,4.57L229,267.78l-7.87,4.57-7.86,4.57-7.86,4.57-7.87,4.57-7.86,4.57-7.86,4.57L174,299.77l-7.86,4.57-7.87,4.57-7.86,4.57-7.86,4.57-7.87,4.57-7.86,4.57-7.86,4.57-7.87,4.57a.71.71,0,0,1,.18-.08l157.23-91.37a1,1,0,0,1,.91.1c4.37-2.54,11.59-2.54,16,0a1.28,1.28,0,0,1,.24-.11Z" transform="translate(-91.89 -55.58)"/><g class="cls-8"><path class="cls-7" d="M268.33,244.93a1,1,0,0,1,1,0c4.37-2.54,11.59-2.54,16,0a1,1,0,0,1,1,0,16.32,16.32,0,0,0-4.33-1.67,21.24,21.24,0,0,0-9.43,0c-.29.07-.67.16-.95.25-.51.17-1.19.41-1.69.6-.28.11-.64.28-.91.41Z" transform="translate(-91.89 -55.58)"/><g class="cls-8"><path class="cls-7" d="M352,283.48,285.36,245l.18-.09,3.34,1.92,3.33,1.93,3.34,1.92,3.33,1.93,3.34,1.92,3.33,1.93,3.33,1.92,3.34,1.93,3.33,1.92,3.34,1.93,3.33,1.92,3.33,1.93,3.34,1.92,3.33,1.93,3.34,1.92,3.33,1.93,3.34,1.92,3.33,1.93,3.33,1.92,3.34,1.93Z" transform="translate(-91.89 -55.58)"/><path class="cls-7" d="M352.23,283.39l-3.34-1.93-3.33-1.92-3.33-1.93-3.34-1.92-3.33-1.93-3.34-1.92-3.33-1.93L325.55,268l-3.33-1.93-3.33-1.92-3.34-1.93-3.33-1.92-3.34-1.93-3.33-1.92-3.33-1.93-3.34-1.92-3.33-1.93-3.34-1.92-3.33-1.93-3.34-1.92a.91.91,0,0,1,.85,0l6.67,3.85,6.67,3.85,6.67,3.85,6.67,3.85,6.66,3.85L326.4,268l6.67,3.85,6.67,3.85,6.67,3.85,3.33,1.92,3.34,1.93A.91.91,0,0,0,352.23,283.39Z" transform="translate(-91.89 -55.58)"/></g><path class="cls-1" d="M358.11,292.6c0,.68,0,.77-.08,1.18a7.6,7.6,0,0,1-.23,1.16,8.87,8.87,0,0,1-1,2.36,9.42,9.42,0,0,1-1.41,1.78,14.13,14.13,0,0,1-1.1.95c-.34.25-.82.55-1.18.78a2.87,2.87,0,0,0,.92-2.49C356.74,296.75,358.1,294.68,358.11,292.6Z" transform="translate(-91.89 -55.58)"/><g class="cls-9"><path class="cls-1" d="M358.11,292.6a9.36,9.36,0,0,1-5,8.21,2.87,2.87,0,0,0,.92-2.49C356.74,296.75,358.1,294.68,358.11,292.6Z" transform="translate(-91.89 -55.58)"/></g><g class="cls-8"><path class="cls-10" d="M358.11,291.71v.89c0,2.08-1.37,4.15-4.07,5.72v-.89C356.75,295.86,358.1,293.79,358.11,291.71Z" transform="translate(-91.89 -55.58)"/></g><path class="cls-2" d="M111.05,336.33l157.28-91.4a1,1,0,0,1,1,0L112.1,336.38A1,1,0,0,0,111.05,336.33Z" transform="translate(-91.89 -55.58)"/><g class="cls-11"><path class="cls-7" d="M269.37,245,112.1,336.38a1,1,0,0,0-.87-.13l157.27-91.4A1,1,0,0,1,269.37,245Z" transform="translate(-91.89 -55.58)"/></g><g class="cls-8"><path class="cls-1" d="M111.1,353.71a9.54,9.54,0,0,1-5-8.29c0,2.1,1.37,4.2,4.13,5.8A2.87,2.87,0,0,0,111.1,353.71Z" transform="translate(-91.89 -55.58)"/></g><g class="cls-8"><path class="cls-10" d="M110.2,350.33v.89c-2.76-1.6-4.14-3.7-4.13-5.8v-.89C106.06,346.63,107.44,348.73,110.2,350.33Z" transform="translate(-91.89 -55.58)"/></g><g class="cls-8"><g class="cls-8"><path class="cls-7" d="M106.07,344.53a9.32,9.32,0,0,1,5-8.2,1,1,0,0,1,1,.05c-4.38,2.54-4.35,6.72.05,9.26-1.07.62-1.94,2.72-2,4.69C107.44,348.73,106.06,346.63,106.07,344.53Z" transform="translate(-91.89 -55.58)"/><path class="cls-10" d="M111.23,336.25c-6.19,3.56-6.67,10.19-1,13.13a7.59,7.59,0,0,0-.07.95c-2.76-1.6-4.14-3.7-4.13-5.8,0-.16,0-.38,0-.54a8.3,8.3,0,0,1,.14-1.14l.11-.52c0-.19.12-.45.18-.64l.19-.52c.08-.19.19-.46.29-.65l.27-.51c.13-.21.3-.5.45-.7l.38-.51c.22-.26.52-.59.76-.83l.55-.49a11.43,11.43,0,0,1,1.64-1.15A.71.71,0,0,1,111.23,336.25Z" transform="translate(-91.89 -55.58)"/></g></g><path class="cls-1" d="M353.12,300.81l-15.72,9.13-15.73,9.14-15.73,9.14-15.73,9.14-15.72,9.14-15.73,9.14L243,364.78l-15.73,9.14-15.72,9.14-15.73,9.14a2.83,2.83,0,0,0,.91-2.48L354,298.32A2.88,2.88,0,0,1,353.12,300.81Z" transform="translate(-91.89 -55.58)"/><g class="cls-12"><g class="cls-8"><path class="cls-1" d="M196.76,389.72,354,298.32a2.88,2.88,0,0,1-.92,2.49l-15.72,9.13-15.73,9.14-15.73,9.14-15.73,9.14-15.72,9.14-15.73,9.14L243,364.78l-15.73,9.14-15.72,9.14-15.73,9.14A2.83,2.83,0,0,0,196.76,389.72Z" transform="translate(-91.89 -55.58)"/></g></g><path class="cls-1" d="M177.78,392.21l-6.66-3.85-6.67-3.85-6.67-3.85-6.67-3.85L144.44,373l-6.67-3.85-6.67-3.85-6.66-3.85-6.67-3.85-6.67-3.85a2.87,2.87,0,0,1-.9-2.49l66.68,38.5A2.87,2.87,0,0,0,177.78,392.21Z" transform="translate(-91.89 -55.58)"/><g class="cls-13"><path class="cls-1" d="M110.2,351.22l66.68,38.5a2.87,2.87,0,0,0,.9,2.49l-6.66-3.85-6.67-3.85-6.67-3.85-6.67-3.85L144.44,373l-6.67-3.85-6.67-3.85-6.66-3.85-6.67-3.85-6.67-3.85A2.87,2.87,0,0,1,110.2,351.22Z" transform="translate(-91.89 -55.58)"/></g><polygon class="cls-10" points="262.15 241.85 262.15 242.74 104.87 334.13 104.87 333.24 262.15 241.85"/><polygon class="cls-10" points="85 333.24 84.99 334.13 18.31 295.63 18.31 294.74 85 333.24"/><g class="cls-8"><path class="cls-7" d="M194.76,384.14,352,292.74a2.1,2.1,0,0,1,.45.35l-157.27,91.4A2.1,2.1,0,0,0,194.76,384.14Z" transform="translate(-91.89 -55.58)"/></g><g class="cls-8"><g class="cls-8"><path class="cls-7" d="M112.15,345.64l66.69,38.5a1.93,1.93,0,0,0-.44.34L111.72,346A1.89,1.89,0,0,1,112.15,345.64Z" transform="translate(-91.89 -55.58)"/><path class="cls-7" d="M111.72,346l66.68,38.5a4.58,4.58,0,0,0-.92,1.46l-66.68-38.5A4.41,4.41,0,0,1,111.72,346Z" transform="translate(-91.89 -55.58)"/><path class="cls-7" d="M110.8,347.44l66.68,38.5a8,8,0,0,0-.53,1.94l-66.68-38.5A7.6,7.6,0,0,1,110.8,347.44Z" transform="translate(-91.89 -55.58)"/><path class="cls-10" d="M110.27,349.38,177,387.88a7.57,7.57,0,0,0-.06.95l-66.69-38.5A7.59,7.59,0,0,1,110.27,349.38Z" transform="translate(-91.89 -55.58)"/></g></g><path class="cls-1" d="M195.85,392.2l-.75.41c-.27.13-.63.3-.91.41-.5.2-1.18.43-1.69.6-.29.09-.67.18-.95.25a20.75,20.75,0,0,1-4.73.53,21.3,21.3,0,0,1-4.7-.52l-.92-.24c-.51-.17-1.2-.4-1.7-.59a16,16,0,0,1-1.72-.84,2.87,2.87,0,0,1-.9-2.49c5.49,3.16,14.44,3.16,19.88,0A2.83,2.83,0,0,1,195.85,392.2Z" transform="translate(-91.89 -55.58)"/><g class="cls-14"><path class="cls-1" d="M195.85,392.2a19.54,19.54,0,0,1-18.07,0,2.87,2.87,0,0,1-.9-2.49c5.49,3.16,14.44,3.16,19.88,0A2.83,2.83,0,0,1,195.85,392.2Z" transform="translate(-91.89 -55.58)"/></g><g class="cls-8"><path class="cls-10" d="M196.77,388.83v.89c-5.44,3.16-14.39,3.16-19.88,0v-.89C182.37,392,191.32,392,196.77,388.83Z" transform="translate(-91.89 -55.58)"/></g><g class="cls-8"><path class="cls-7" d="M196.7,387.88c-.21-1.65-1-3.22-1.88-3.74-4.37,2.54-11.58,2.54-16,0-.9.52-1.66,2.09-1.88,3.75C182.42,391,191.27,391,196.7,387.88Z" transform="translate(-91.89 -55.58)"/><path class="cls-10" d="M177,387.89a5.86,5.86,0,0,0-.07.94c5.48,3.16,14.43,3.16,19.88,0a7.59,7.59,0,0,0-.07-.95C191.27,391,182.42,391,177,387.89Z" transform="translate(-91.89 -55.58)"/><path class="cls-7" d="M178.84,384.14c4.4,2.54,11.61,2.54,16,0,.91.52,1.67,2.09,1.88,3.74l.07,0c0-2-.87-4.07-2-4.69-4.37,2.54-11.58,2.54-16,0-1.07.62-2,2.72-2,4.69l.07,0C177.18,386.23,177.94,384.66,178.84,384.14Z" transform="translate(-91.89 -55.58)"/></g><path class="cls-7" d="M352.1,292.74c4.37-2.54,4.35-6.72-.06-9.26L285.36,245c-4.4-2.54-11.62-2.54-16,0l-2.08,1.21L350,294Z" transform="translate(-91.89 -55.58)"/><path class="cls-15" d="M267.29,246.19,112.1,336.38c-4.38,2.54-4.35,6.72.05,9.26l66.69,38.5c4.4,2.54,11.61,2.54,16,0L350,294Z" transform="translate(-91.89 -55.58)"/></g><path class="cls-7" d="M352.48,293.09l-157.27,91.4a6.21,6.21,0,0,1,1.56,3.36L354,297.05A6.52,6.52,0,0,0,352.48,293.09Z" transform="translate(-91.89 -55.58)"/><path class="cls-10" d="M196.7,387.89a7.43,7.43,0,0,1,.07.94L354,297.43c0-.12,0-.25,0-.38Z" transform="translate(-91.89 -55.58)"/><g class="cls-8"><path class="cls-7" d="M353.08,283.43a9.52,9.52,0,0,1,5,8.28c0,2.08-1.36,4.15-4.07,5.72,0-1.85-.86-4.07-1.94-4.69,4.37-2.54,4.35-6.72-.06-9.26A1,1,0,0,1,353.08,283.43Z" transform="translate(-91.89 -55.58)"/></g><path class="cls-10" d="M358.06,290.75c0,.2,0,.39,0,.59,0,2.07-1.36,4.14-4.07,5.72,0,.12,0,.25,0,.37,2.71-1.57,4.06-3.64,4.07-5.72C358.11,291.38,358.09,291.06,358.06,290.75Z" transform="translate(-91.89 -55.58)"/><path class="cls-16" d="M283.61,250.12c-1.51.87-1.52,2.28,0,3.15a6,6,0,0,0,5.44,0c1.51-.87,1.52-2.28,0-3.15A6,6,0,0,0,283.61,250.12Z" transform="translate(-91.89 -55.58)"/><path class="cls-16" d="M278.73,247.14c-1,.56-1,1.45,0,2a3.8,3.8,0,0,0,3.46,0,1.05,1.05,0,0,0,0-2A3.85,3.85,0,0,0,278.73,247.14Z" transform="translate(-91.89 -55.58)"/><path class="cls-16" d="M310.32,268.05l-5.46-3.15a1.19,1.19,0,0,1,0-2.25,4.32,4.32,0,0,1,3.9,0l5.46,3.14a1.2,1.2,0,0,1,0,2.26A4.32,4.32,0,0,1,310.32,268.05Z" transform="translate(-91.89 -55.58)"/><path class="cls-17" d="M172.33,387.31a2.49,2.49,0,0,0,1.12,1.95c.45.26.83.18,1-.16a.89.89,0,0,0,.12-.49,2.5,2.5,0,0,0-1.13-1.95,1.09,1.09,0,0,0-.44-.15C172.61,386.48,172.33,386.77,172.33,387.31Z" transform="translate(-91.89 -55.58)"/><path class="cls-16" d="M172.89,387A2.53,2.53,0,0,0,174,389a1.06,1.06,0,0,0,.44.14.89.89,0,0,0,.12-.49,2.5,2.5,0,0,0-1.13-1.95,1.09,1.09,0,0,0-.44-.15A1,1,0,0,0,172.89,387Z" transform="translate(-91.89 -55.58)"/><path class="cls-17" d="M139.42,368.13a2.48,2.48,0,0,0,1.12,1.94l3.11,1.79a1,1,0,0,0,.5.16.52.52,0,0,0,.47-.26.94.94,0,0,0,.15-.54,2.51,2.51,0,0,0-1.12-1.94l-3.11-1.79a1.12,1.12,0,0,0-.33-.14l-.17,0C139.67,367.33,139.42,367.63,139.42,368.13Z" transform="translate(-91.89 -55.58)"/><path class="cls-16" d="M140.07,367.9a2.48,2.48,0,0,0,1.12,1.94l3.11,1.79a.31.31,0,1,0,.47-.41,2.51,2.51,0,0,0-1.12-1.94l-3.11-1.79a1.12,1.12,0,0,0-.33-.14A1,1,0,0,0,140.07,367.9Z" transform="translate(-91.89 -55.58)"/><path class="cls-18" d="M91.89,136.69l0,123c0,3.49,2.45,4.9,5.48,3.16l123-70.88a12.05,12.05,0,0,0,5.48-9.49l0-123c0-3.49-2.45-4.9-5.47-3.16l-123,70.88A12.1,12.1,0,0,0,91.89,136.69Z" transform="translate(-91.89 -55.58)"/><path class="cls-19" d="M99.18,141.65l0,123c0,3.49,2.45,4.91,5.47,3.16l123-70.87a12.11,12.11,0,0,0,5.48-9.49l0-123c0-3.48-2.45-4.9-5.47-3.16l-123,70.88A12.08,12.08,0,0,0,99.18,141.65Z" transform="translate(-91.89 -55.58)"/><g class="cls-8"><path class="cls-6" d="M241.94,60.88l2.67,1.55a3.79,3.79,0,0,0-3.8.37l-2.67-1.55A3.77,3.77,0,0,1,241.94,60.88Z" transform="translate(-91.89 -55.58)"/><g class="cls-20"><g class="cls-8"><path class="cls-6" d="M240.81,62.8l-2.67-1.55a3.77,3.77,0,0,1,3.8-.37l2.67,1.55A3.79,3.79,0,0,0,240.81,62.8Z" transform="translate(-91.89 -55.58)"/></g></g><g class="cls-8"><path class="cls-7" d="M111.62,276.31,109,274.76a3.72,3.72,0,0,1-1.56-3.42l2.67,1.56A3.72,3.72,0,0,0,111.62,276.31Z" transform="translate(-91.89 -55.58)"/><g class="cls-21"><g class="cls-8"><path class="cls-7" d="M111.62,276.31,109,274.76a3.72,3.72,0,0,1-1.56-3.42l2.67,1.56A3.72,3.72,0,0,0,111.62,276.31Z" transform="translate(-91.89 -55.58)"/></g></g></g><polygon class="cls-22" points="17.78 88.96 15.11 87.41 15.12 92.52 17.8 94.06 17.78 88.96"/><polygon class="cls-7" points="15.12 92.52 15.49 215.76 18.17 217.31 17.8 94.06 15.12 92.52"/><polygon class="cls-6" points="23.1 79.74 20.43 78.19 146.25 5.67 148.92 7.22 23.1 79.74"/><g class="cls-8"><path class="cls-7" d="M109.67,144.54,107,143a11.72,11.72,0,0,1,5.32-9.22l2.68,1.56A11.71,11.71,0,0,0,109.67,144.54Z" transform="translate(-91.89 -55.58)"/><g class="cls-23"><g class="cls-8"><path class="cls-22" d="M109.67,144.54,107,143a11.72,11.72,0,0,1,5.32-9.22l2.68,1.56A11.71,11.71,0,0,0,109.67,144.54Z" transform="translate(-91.89 -55.58)"/></g></g></g><path class="cls-24" d="M115,135.33,240.81,62.8c2.95-1.69,5.34-.33,5.35,3l.39,128.36a11.74,11.74,0,0,1-5.32,9.22L115.41,276c-2.94,1.69-5.33.33-5.35-3.05l-.39-128.36A11.71,11.71,0,0,1,115,135.33Z" transform="translate(-91.89 -55.58)"/><path class="cls-25" d="M246.16,65.85c0-3.38-2.4-4.74-5.35-3L115,135.33a11.71,11.71,0,0,0-5.33,9.21l0,5.11L246.18,70.87Z" transform="translate(-91.89 -55.58)"/></g><path class="cls-4" d="M121.68,239.06a1.51,1.51,0,0,1,1.3-.23c1.11.45,1.12,3.26-2.69,8.3-3.89-.49-4-3.27-2.87-5a4.14,4.14,0,0,1,1.29-1.31c.57-.34,1.15-.39,1.5.12A3.5,3.5,0,0,1,121.68,239.06Z" transform="translate(-91.89 -55.58)"/><path class="cls-26" d="M124.66,238.93a6.48,6.48,0,0,1,1.41-1c.48-.27.79-.1.79.44v.26a1.27,1.27,0,0,1-.33.91c.23,0,.33.18.33.56v.21a1.55,1.55,0,0,1-.82,1.38,4.61,4.61,0,0,1-1.35.64v-.52l1.11-.64c.29-.16.45-.28.45-.6v-.16c0-.3-.16-.27-.42-.14l-.87.47v-.57l.87-.55c.3-.19.43-.35.43-.61v-.18c0-.29-.21-.24-.43-.11l-1.17.68Z" transform="translate(-91.89 -55.58)"/><path class="cls-26" d="M127.35,240.28l1.23-.71a.58.58,0,0,0,.32-.54v-.33c0-.17,0-.35-.29-.2l-.41.24a.52.52,0,0,0-.27.45l-.57.33.09-2.34,1.94-1.11v.65l-1.35.78,0,.85a1.07,1.07,0,0,1,.3-.3,4.6,4.6,0,0,1,.47-.27c.51-.27.73,0,.73.5v.52a1.62,1.62,0,0,1-.81,1.38,7.34,7.34,0,0,1-1.35.66Z" transform="translate(-91.89 -55.58)"/><path class="cls-26" d="M129.92,236.69a1.59,1.59,0,0,1,.81-1.4l.71-.41c.59-.34.77,0,.77.46v1.89a1.51,1.51,0,0,1-.77,1.35l-.72.41c-.49.29-.8.17-.8-.44Zm.94,1.57.42-.24a.56.56,0,0,0,.32-.55V235.8c0-.23-.09-.31-.3-.19l-.45.27a.6.6,0,0,0-.32.54v1.67C130.53,238.39,130.72,238.35,130.86,238.26Z" transform="translate(-91.89 -55.58)"/><path class="cls-26" d="M143,228.18a6.71,6.71,0,0,1,1.39-.7V228l-1.09.63c-.4.23-.43.8-.43,1.19a5.21,5.21,0,0,1,.88-.61c.61-.36.75-.05.75.43v.55a1.4,1.4,0,0,1-.78,1.28l-.62.36c-.51.29-.84.14-.84-1.46C142.28,229.05,142.65,228.43,143,228.18Zm.28,2.9.33-.19a.46.46,0,0,0,.28-.47v-.34c0-.26-.09-.27-.26-.17l-.76.44C142.89,230.86,142.93,231.3,143.3,231.08Z" transform="translate(-91.89 -55.58)"/><path class="cls-26" d="M144.84,227.23a10.7,10.7,0,0,1,1.32-.9c.66-.38.94,0,.94.6a6.69,6.69,0,0,1-1.2,2.65l1.2-.7v.66l-2.23,1.29v-.63a10,10,0,0,0,1.62-2.91c0-.34-.15-.4-.52-.19l-1.13.65Z" transform="translate(-91.89 -55.58)"/><path class="cls-26" d="M140,229l-5.21,3a1.44,1.44,0,0,0-.65,1.13v4.33c0,.42.29.59.65.38l3.45-2,1.9.48,0-1.58a1.47,1.47,0,0,0,.53-1.05V229.4C140.69,229,140.4,228.82,140,229Z" transform="translate(-91.89 -55.58)"/><path class="cls-27" d="M124.65,252c0-2.77-1.92-3.9-4.29-2.53a9.52,9.52,0,0,0-4.3,7.49c0,2.76,1.92,3.89,4.3,2.52A9.54,9.54,0,0,0,124.65,252Z" transform="translate(-91.89 -55.58)"/><path class="cls-24" d="M121.69,251a3,3,0,0,1-1.33,2.32c-.74.43-1.34.08-1.34-.78a3,3,0,0,1,1.34-2.32C121.09,249.75,121.69,250.1,121.69,251Z" transform="translate(-91.89 -55.58)"/><path class="cls-24" d="M122.44,256.92v-2.57c0-1.12-.79-1.58-1.75-1l-.67.39a3.88,3.88,0,0,0-1.75,3v2.56Z" transform="translate(-91.89 -55.58)"/><path class="cls-28" d="M120.64,253.36l-.57.32Z" transform="translate(-91.89 -55.58)"/><polygon class="cls-26" points="40.27 191.97 34.29 195.42 34.29 193.57 40.27 190.12 40.27 191.97"/><polygon class="cls-26" points="43.44 192.75 34.29 198.03 34.29 196.18 43.44 190.9 43.44 192.75"/><polygon class="cls-26" points="46.98 190.7 44.11 192.36 44.11 190.51 46.98 188.85 46.98 190.7"/><polygon class="cls-26" points="51.42 188.13 48.2 190 48.2 188.15 51.42 186.28 51.42 188.13"/><polygon class="cls-26" points="56.64 185.12 52.23 187.67 52.23 185.82 56.64 183.27 56.64 185.12"/><polygon class="cls-26" points="66.94 179.18 57.4 184.69 57.4 182.83 66.94 177.33 66.94 179.18"/><polygon class="cls-26" points="71.43 176.59 67.66 178.76 67.66 176.91 71.43 174.74 71.43 176.59"/><polygon class="cls-26" points="75.9 174 72.14 176.18 72.14 174.33 75.9 172.15 75.9 174"/><polygon class="cls-26" points="87.64 164.62 78.5 169.9 78.5 168.05 87.64 162.77 87.64 164.62"/><polygon class="cls-26" points="91.18 162.58 88.31 164.23 88.31 162.38 91.18 160.73 91.18 162.58"/><polygon class="cls-26" points="95.63 160.01 92.4 161.87 92.4 160.02 95.63 158.16 95.63 160.01"/><polygon class="cls-26" points="100.85 157 96.43 159.55 96.43 157.7 100.85 155.15 100.85 157"/><polygon class="cls-26" points="108.59 152.53 101.61 156.56 101.61 154.71 108.59 150.68 108.59 152.53"/><polygon class="cls-26" points="46.57 188.34 40.92 191.6 40.92 189.75 46.57 186.49 46.57 188.34"/><polygon class="cls-26" points="52.23 185.07 47.3 187.91 47.3 186.06 52.23 183.22 52.23 185.07"/><polygon class="cls-26" points="55.12 183.4 52.94 184.66 52.94 182.81 55.12 181.55 55.12 183.4"/><polygon class="cls-26" points="77.72 170.35 75.54 171.61 75.54 169.76 77.72 168.5 77.72 170.35"/><polygon class="cls-26" points="60.6 180.24 55.78 183.02 55.78 181.17 60.6 178.39 60.6 180.24"/><polygon class="cls-26" points="74.61 172.15 61.89 179.49 61.89 177.64 74.61 170.3 74.61 172.15"/><path class="cls-27" d="M124.65,263.6c0-2.76-1.92-3.89-4.29-2.52a9.52,9.52,0,0,0-4.3,7.49c0,2.76,1.92,3.89,4.3,2.52A9.54,9.54,0,0,0,124.65,263.6Z" transform="translate(-91.89 -55.58)"/><path class="cls-24" d="M121.69,262.55a3,3,0,0,1-1.33,2.32c-.74.43-1.34.08-1.34-.78a2.94,2.94,0,0,1,1.34-2.32C121.09,261.34,121.69,261.69,121.69,262.55Z" transform="translate(-91.89 -55.58)"/><path class="cls-24" d="M122.44,268.51V266c0-1.12-.79-1.58-1.75-1l-.67.39a3.92,3.92,0,0,0-1.75,3.05v2.56Z" transform="translate(-91.89 -55.58)"/><path class="cls-28" d="M120.64,265l-.57.32Z" transform="translate(-91.89 -55.58)"/><polygon class="cls-26" points="40.27 201.34 34.29 204.79 34.29 202.94 40.27 199.49 40.27 201.34"/><polygon class="cls-26" points="43.44 202.12 34.29 207.4 34.29 205.55 43.44 200.27 43.44 202.12"/><polygon class="cls-26" points="46.98 200.07 44.11 201.73 44.11 199.88 46.98 198.22 46.98 200.07"/><polygon class="cls-26" points="51.42 197.51 48.2 199.37 48.2 197.52 51.42 195.66 51.42 197.51"/><polygon class="cls-26" points="56.64 194.49 52.23 197.04 52.23 195.19 56.64 192.64 56.64 194.49"/><polygon class="cls-26" points="66.94 188.55 57.4 194.06 57.4 192.21 66.94 186.7 66.94 188.55"/><polygon class="cls-26" points="71.43 185.96 67.66 188.13 67.66 186.28 71.43 184.11 71.43 185.96"/><polygon class="cls-26" points="75.9 183.37 72.14 185.55 72.14 183.7 75.9 181.52 75.9 183.37"/><polygon class="cls-26" points="87.64 173.99 78.5 179.27 78.5 177.42 87.64 172.14 87.64 173.99"/><polygon class="cls-26" points="95.59 169.41 88.31 173.6 88.31 171.75 95.59 167.56 95.59 169.41"/><polygon class="cls-26" points="100.85 166.37 96.43 168.92 96.43 167.07 100.85 164.52 100.85 166.37"/><polygon class="cls-26" points="108.59 161.9 101.61 165.93 101.61 164.08 108.59 160.05 108.59 161.9"/><polygon class="cls-26" points="52.23 194.44 40.92 200.97 40.92 199.12 52.23 192.59 52.23 194.44"/><polygon class="cls-26" points="55.12 192.77 52.94 194.03 52.94 192.18 55.12 190.92 55.12 192.77"/><polygon class="cls-26" points="77.72 179.72 75.54 180.98 75.54 179.13 77.72 177.87 77.72 179.72"/><polygon class="cls-26" points="60.6 189.61 55.78 192.39 55.78 190.54 60.6 187.76 60.6 189.61"/><polygon class="cls-26" points="108.75 164.41 105.21 166.45 105.21 164.6 108.75 162.56 108.75 164.41"/><polygon class="cls-26" points="74.61 181.52 61.89 188.86 61.89 187.01 74.61 179.67 74.61 181.52"/><polygon class="cls-26" points="55.24 196.1 64.39 190.82 64.39 192.67 55.24 197.95 55.24 196.1"/><polygon class="cls-26" points="51.7 198.14 54.57 196.49 54.57 198.34 51.7 199.99 51.7 198.14"/><polygon class="cls-26" points="47.26 200.71 50.48 198.85 50.48 200.7 47.26 202.56 47.26 200.71"/><polygon class="cls-26" points="42.03 203.72 46.45 201.17 46.45 203.02 42.03 205.57 42.03 203.72"/><polygon class="cls-26" points="34.29 208.19 41.28 204.16 41.28 206.01 34.29 210.04 34.29 208.19"/><polygon class="cls-26" points="90.66 175.65 95.59 172.8 95.59 174.65 90.66 177.5 90.66 175.65"/><polygon class="cls-26" points="87.77 177.32 89.95 176.06 89.95 177.91 87.77 179.17 87.77 177.32"/><polygon class="cls-26" points="65.17 190.37 67.34 189.11 67.34 190.96 65.17 192.22 65.17 190.37"/><polygon class="cls-26" points="82.29 180.48 87.11 177.7 87.11 179.55 82.29 182.33 82.29 180.48"/><polygon class="cls-26" points="68.28 188.57 80.99 181.23 80.99 183.08 68.28 190.42 68.28 188.57"/><polygon class="cls-26" points="84.44 178.44 76.63 182.95 76.63 181.1 84.44 176.59 84.44 178.44"/><polygon class="cls-26" points="89.92 175.28 85.11 178.06 85.11 176.21 89.92 173.43 89.92 175.28"/><polygon class="cls-26" points="103.93 167.19 91.22 174.53 91.22 172.68 103.93 165.34 103.93 167.19"/><polygon class="cls-7" points="149.3 22.94 149.3 111.79 85.36 148.64 72.8 155.88 70.95 156.95 53.98 166.73 23.33 184.39 23.33 95.54 149.3 22.94"/><g class="cls-8"><polygon class="cls-10" points="159.04 237.94 146.85 230.85 140.17 226.97 131.04 221.66 130.95 189.64 130.92 179.26 140.17 184.63 146.85 188.52 158.92 195.53 158.92 195.6 158.95 205.91 159.04 237.94"/><polygon class="cls-27" points="159.02 205.95 158.95 205.91 130.95 189.64 130.92 179.26 140.17 184.63 146.85 188.52 158.92 195.53 158.92 195.6 159.02 205.95"/><polygon class="cls-29" points="158.92 195.53 130.92 179.26 159.85 162.56 187.85 178.83 158.92 195.53"/><polygon class="cls-27" points="187.97 221.24 177.67 227.18 170.96 231.06 159.04 237.94 158.92 195.6 158.92 195.53 170.96 188.58 177.67 184.71 187.85 178.83 187.88 189.28 187.97 221.24"/></g><g class="cls-8"><polygon class="cls-24" points="159.02 202.22 129.15 184.86 129.02 170.71 158.89 188.07 159.02 202.22"/><polygon class="cls-30" points="187.88 189.28 159.02 205.95 158.92 195.6 158.92 195.53 170.96 188.58 177.67 184.71 187.85 178.83 187.88 189.28"/><polygon class="cls-7" points="189.74 170.26 177.67 177.23 170.96 181.1 158.89 188.07 146.85 181.08 140.17 177.19 129.02 170.71 141 163.8 147.7 159.93 159.87 152.9 171.02 159.38 177.71 163.26 189.74 170.26"/><polygon class="cls-10" points="189.74 170.26 189.87 184.4 159.02 202.22 158.89 188.07 189.74 170.26"/></g><polygon class="cls-3" points="146.85 181.08 146.85 188.52 146.85 230.85 140.17 226.97 140.17 184.63 140.17 177.19 146.85 181.08"/><polygon class="cls-31" points="177.67 227.18 170.96 231.06 170.96 188.58 170.96 181.1 177.67 177.23 177.67 184.71 177.67 227.18"/><polygon class="cls-31" points="188 181.88 184.91 179.89 181.3 190.96 181.29 182.68 181.29 175.2 188 171.32 188 178.81 188 181.88"/><polygon class="cls-4" points="177.67 177.23 170.96 181.1 158.89 174.13 152.18 170.26 141 163.8 147.7 159.93 158.89 166.38 165.6 170.26 177.67 177.23"/><polygon class="cls-4" points="188 171.33 181.3 175.21 157.22 172.16 163.93 168.29 188 171.33"/><polygon class="cls-4" points="177.71 163.26 165.6 170.26 158.89 174.13 146.85 181.08 140.17 177.19 152.18 170.26 158.89 166.38 171.02 159.38 177.71 163.26"/><g class="cls-8"><g class="cls-8"><g class="cls-32"><g class="cls-8"><path class="cls-3" d="M271.46,210l-6.62-3.85a13.24,13.24,0,0,0,.44-6.11,4.12,4.12,0,0,0-1.66-2.91l6.62,3.85a4.1,4.1,0,0,1,1.66,2.91A13.25,13.25,0,0,1,271.46,210Z" transform="translate(-91.89 -55.58)"/></g></g></g><g class="cls-8"><g class="cls-8"><path class="cls-3" d="M252.58,222V223l3,1.73a2.6,2.6,0,0,0,1.8.12Z" transform="translate(-91.89 -55.58)"/><path class="cls-3" d="M260.77,213.27c-.57.7-1.19,1.39-1.86,2.08a27.39,27.39,0,0,1-5.62,4.57c-.24.14-.48.27-.71.38V222l4.77,2.77a8.34,8.34,0,0,0,.81-.22,10.31,10.31,0,0,0,1.75-.82,27.39,27.39,0,0,0,5.62-4.57c.67-.69,1.28-1.38,1.86-2.08Z" transform="translate(-91.89 -55.58)"/><path class="cls-3" d="M267.39,217.12l-6.62-3.85a21.57,21.57,0,0,0,4.07-7.12l6.62,3.85A21.57,21.57,0,0,1,267.39,217.12Z" transform="translate(-91.89 -55.58)"/></g></g><g class="cls-8"><g class="cls-8"><path class="cls-4" d="M259.83,209.52a30.22,30.22,0,0,1,2.76-4L256,201.65a29.7,29.7,0,0,0-2.76,4,46.75,46.75,0,0,0-4.58,10.87l4,2.79V223l2.94,1.71a1.51,1.51,0,0,1-.38-.33,3.3,3.3,0,0,1-.22-2.61A44.7,44.7,0,0,1,259.83,209.52Z" transform="translate(-91.89 -55.58)"/><path class="cls-4" d="M262.59,205.5,256,201.65a23,23,0,0,1,1.73-1.9l.12-.12a15.81,15.81,0,0,1,2.79-2.2,5,5,0,0,1,1.43-.59l6.62,3.85a5,5,0,0,0-1.43.59,15.35,15.35,0,0,0-2.79,2.2l-.12.12A23,23,0,0,0,262.59,205.5Z" transform="translate(-91.89 -55.58)"/><path class="cls-4" d="M268.66,200.69,262,196.84a2.47,2.47,0,0,1,.85,0,2.21,2.21,0,0,1,.76.26l6.62,3.85a2,2,0,0,0-.76-.27A2.26,2.26,0,0,0,268.66,200.69Z" transform="translate(-91.89 -55.58)"/></g></g><path class="cls-31" d="M272,203.85a13.24,13.24,0,0,1-.45,6.14,24.22,24.22,0,0,1-5.95,9.25,27.21,27.21,0,0,1-5.64,4.58,9,9,0,0,1-1.76.82c-1.49.5-2.51.43-3-.22a3.3,3.3,0,0,1-.22-2.61,44.7,44.7,0,0,1,4.91-12.29,27.53,27.53,0,0,1,4.49-5.92l.12-.12a15.35,15.35,0,0,1,2.79-2.2,3.63,3.63,0,0,1,2.28-.63C270.71,200.84,271.58,202,272,203.85Zm-.49,6.15a13.25,13.25,0,0,0,.44-6.11c-.37-1.87-1.22-3-2.42-3.18a3.67,3.67,0,0,0-2.25.62,15.29,15.29,0,0,0-2.77,2.19l-.12.12a27.68,27.68,0,0,0-4.48,5.9A44.44,44.44,0,0,0,255,221.8a3.22,3.22,0,0,0,.21,2.57c.5.64,1.5.71,3,.22a10.31,10.31,0,0,0,1.75-.82,27.39,27.39,0,0,0,5.62-4.57A24.27,24.27,0,0,0,271.46,210Z" transform="translate(-91.89 -55.58)"/></g><g class="cls-8"><g class="cls-8"><path class="cls-3" d="M245.87,214l6.62,3.85a8,8,0,0,1,3.18,3.31c.76,1.51,0,3.54-2.28,6l-6.62-3.85c2.28-2.49,3-4.52,2.28-6A8,8,0,0,0,245.87,214Z" transform="translate(-91.89 -55.58)"/><g class="cls-33"><g class="cls-8"><path class="cls-3" d="M253.39,227.21l-6.62-3.85c.24-.26.46-.51.66-.76l6.62,3.85C253.85,226.7,253.63,227,253.39,227.21Z" transform="translate(-91.89 -55.58)"/><path class="cls-3" d="M254.05,226.45l-6.62-3.85c1.76-2.15,2.31-3.92,1.62-5.28a8,8,0,0,0-3.18-3.31l6.62,3.85a8,8,0,0,1,3.18,3.31C256.36,222.53,255.81,224.3,254.05,226.45Z" transform="translate(-91.89 -55.58)"/></g></g></g><g class="cls-8"><path class="cls-3" d="M240.44,232.25l-6.62-3.85c1.32.77,3.37.67,5.89-.31a19,19,0,0,0,2.66-1.28,18.45,18.45,0,0,0,4.4-3.45l6.62,3.85a19.78,19.78,0,0,1-7.06,4.73C243.81,232.92,241.76,233,240.44,232.25Z" transform="translate(-91.89 -55.58)"/><g class="cls-34"><g class="cls-8"><path class="cls-3" d="M240.44,232.25l-6.62-3.85a5.31,5.31,0,0,0,3.81.32l6.62,3.85A5.41,5.41,0,0,1,240.44,232.25Z" transform="translate(-91.89 -55.58)"/><path class="cls-3" d="M244.25,232.57l-6.62-3.85a12.12,12.12,0,0,0,2.08-.63,19,19,0,0,0,2.66-1.28,18.45,18.45,0,0,0,4.4-3.45l6.62,3.85a19.78,19.78,0,0,1-7.06,4.73A12.12,12.12,0,0,1,244.25,232.57Z" transform="translate(-91.89 -55.58)"/></g></g></g><g class="cls-8"><path class="cls-4" d="M240.41,232.31l-6.62-3.85a2.86,2.86,0,0,1-.67-.52,6.84,6.84,0,0,1-1.48-4.53,11.11,11.11,0,0,1,1.44-5.68,10.45,10.45,0,0,1,3.64-3.61,7.69,7.69,0,0,1,1.07-.5c2.61-.9,4.64-1.05,6.38-.45a9.07,9.07,0,0,1,1.73.79l6.62,3.84a9.7,9.7,0,0,0-1.73-.78c-1.74-.6-3.77-.45-6.39.45a6.18,6.18,0,0,0-1.06.5,10.47,10.47,0,0,0-3.65,3.61,11.11,11.11,0,0,0-1.43,5.68,6.77,6.77,0,0,0,1.48,4.52A2.9,2.9,0,0,0,240.41,232.31Z" transform="translate(-91.89 -55.58)"/><g class="cls-35"><g class="cls-8"><path class="cls-4" d="M240.41,232.31l-6.62-3.85a2.86,2.86,0,0,1-.67-.52,6.84,6.84,0,0,1-1.48-4.53,11.11,11.11,0,0,1,1.44-5.68,8.85,8.85,0,0,1,.83-1.2l6.62,3.85a9.93,9.93,0,0,0-.84,1.2,11.11,11.11,0,0,0-1.43,5.68,6.77,6.77,0,0,0,1.48,4.52A2.9,2.9,0,0,0,240.41,232.31Z" transform="translate(-91.89 -55.58)"/><path class="cls-4" d="M240.53,220.38l-6.62-3.85a10.82,10.82,0,0,1,2.81-2.41,7.69,7.69,0,0,1,1.07-.5,15.9,15.9,0,0,1,2-.57l6.62,3.84a18.58,18.58,0,0,0-2,.58,6.18,6.18,0,0,0-1.06.5A10.82,10.82,0,0,0,240.53,220.38Z" transform="translate(-91.89 -55.58)"/><path class="cls-4" d="M246.45,216.89l-6.62-3.84a8.06,8.06,0,0,1,4.34.12,9.07,9.07,0,0,1,1.73.79l6.62,3.84a9.7,9.7,0,0,0-1.73-.78A8,8,0,0,0,246.45,216.89Z" transform="translate(-91.89 -55.58)"/></g></g></g><path class="cls-31" d="M255.72,221.12c.77,1.54,0,3.6-2.31,6.13a20.08,20.08,0,0,1-7.09,4.75c-3,1.16-5.34,1.09-6.58-.22a6.77,6.77,0,0,1-1.48-4.52,11.11,11.11,0,0,1,1.43-5.68,10.47,10.47,0,0,1,3.65-3.61,6.18,6.18,0,0,1,1.06-.5c2.62-.9,4.65-1.05,6.39-.45A8.47,8.47,0,0,1,255.72,221.12Zm-2.33,6.09c2.28-2.5,3-4.53,2.28-6a8.41,8.41,0,0,0-4.91-4.09c-1.73-.6-3.76-.45-6.36.45a6.14,6.14,0,0,0-1.06.49,10.36,10.36,0,0,0-3.61,3.58,10.89,10.89,0,0,0-1.42,5.63,6.79,6.79,0,0,0,1.47,4.5c1.23,1.29,3.56,1.37,6.55.21a19.78,19.78,0,0,0,7.06-4.73Z" transform="translate(-91.89 -55.58)"/></g><g class="cls-8"><polygon class="cls-10" points="201.04 248.48 192.46 243.49 187.75 240.76 181.32 237.02 181.26 226.09 181.24 218.79 187.75 222.57 192.46 225.31 200.95 230.24 200.95 230.29 200.97 237.55 201.04 248.48"/><polygon class="cls-27" points="201.02 237.58 200.97 237.55 181.26 226.09 181.24 218.79 187.75 222.57 192.46 225.31 200.95 230.24 200.95 230.29 201.02 237.58"/><polygon class="cls-29" points="200.95 230.24 181.24 218.79 213.71 199.9 233.42 211.35 200.95 230.24"/><polygon class="cls-27" points="233.5 229.59 226.25 233.77 221.53 236.5 201.04 248.48 200.95 230.29 200.95 230.24 221.53 218.22 226.25 215.49 233.42 211.35 233.44 218.71 233.5 229.59"/></g><g class="cls-8"><polygon class="cls-24" points="201.02 234.95 179.99 222.73 179.9 212.77 200.93 224.99 201.02 234.95"/><polygon class="cls-30" points="233.44 218.71 201.02 237.58 200.95 230.29 200.95 230.24 221.53 218.22 226.25 215.49 233.42 211.35 233.44 218.71"/><polygon class="cls-7" points="234.75 205.32 226.25 210.23 221.53 212.95 200.93 224.99 192.46 220.07 187.75 217.34 179.9 212.77 200.44 200.77 205.16 198.05 213.72 193.1 221.57 197.66 226.28 200.4 234.75 205.32"/><polygon class="cls-10" points="234.75 205.32 234.84 215.28 201.02 234.95 200.93 224.99 234.75 205.32"/></g><polygon class="cls-3" points="192.46 220.07 192.46 225.31 192.46 243.49 187.75 240.76 187.75 222.57 187.75 217.34 192.46 220.07"/><polygon class="cls-31" points="219.42 237.77 214.7 240.49 214.7 222.21 214.7 216.94 219.42 214.22 219.42 219.48 219.42 237.77"/><polygon class="cls-31" points="228.03 215.59 225.85 214.19 223.31 221.97 223.31 216.15 223.31 210.88 228.03 208.16 228.03 213.42 228.03 215.59"/><polygon class="cls-4" points="219.42 214.22 214.7 216.94 206.2 212.04 201.48 209.31 193.6 204.77 198.33 202.04 206.2 206.59 210.92 209.31 219.42 214.22"/><polygon class="cls-4" points="228.03 208.16 223.31 210.89 206.36 208.75 211.08 206.02 228.03 208.16"/><polygon class="cls-4" points="226.28 200.4 217.75 205.32 213.03 208.05 192.46 220.07 187.75 217.34 208.31 205.32 213.03 202.59 221.57 197.66 226.28 200.4"/><g class="cls-8"><g class="cls-8"><g class="cls-36"><g class="cls-8"><path class="cls-3" d="M311.64,253.88,307,251.17a9.46,9.46,0,0,0,.31-4.3,2.91,2.91,0,0,0-1.17-2.05l4.66,2.71a2.91,2.91,0,0,1,1.17,2.05A9.47,9.47,0,0,1,311.64,253.88Z" transform="translate(-91.89 -55.58)"/></g></g></g><g class="cls-8"><g class="cls-8"><path class="cls-3" d="M298.35,262.35V263l2.09,1.22a1.77,1.77,0,0,0,1.26.08Z" transform="translate(-91.89 -55.58)"/><path class="cls-3" d="M304.11,256.18c-.4.49-.84,1-1.3,1.46a19.19,19.19,0,0,1-4,3.22l-.5.27v1.22l3.35,1.95a3.94,3.94,0,0,0,.58-.16,6.27,6.27,0,0,0,1.23-.57,19.19,19.19,0,0,0,4-3.22c.46-.48.9-1,1.3-1.46Z" transform="translate(-91.89 -55.58)"/><path class="cls-3" d="M308.77,258.89l-4.66-2.71a15,15,0,0,0,2.87-5l4.66,2.71A15.3,15.3,0,0,1,308.77,258.89Z" transform="translate(-91.89 -55.58)"/></g></g><g class="cls-8"><g class="cls-8"><path class="cls-4" d="M303.45,253.54a20.69,20.69,0,0,1,1.94-2.83L300.73,248a22.32,22.32,0,0,0-1.94,2.83,33.46,33.46,0,0,0-3.22,7.66l2.78,2v2.61l2.06,1.2a1.13,1.13,0,0,1-.26-.23,2.3,2.3,0,0,1-.15-1.84A31.26,31.26,0,0,1,303.45,253.54Z" transform="translate(-91.89 -55.58)"/><path class="cls-4" d="M305.39,250.71,300.73,248a17.77,17.77,0,0,1,1.23-1.34l.08-.08a10.48,10.48,0,0,1,2-1.55,3.4,3.4,0,0,1,1-.41l4.66,2.7a3.75,3.75,0,0,0-1,.42,10.48,10.48,0,0,0-2,1.55.6.6,0,0,0-.08.08A14.6,14.6,0,0,0,305.39,250.71Z" transform="translate(-91.89 -55.58)"/><path class="cls-4" d="M309.67,247.32l-4.66-2.7a1.54,1.54,0,0,1,.6,0,1.4,1.4,0,0,1,.53.19l4.66,2.71a1.4,1.4,0,0,0-.53-.19A1.75,1.75,0,0,0,309.67,247.32Z" transform="translate(-91.89 -55.58)"/></g></g><path class="cls-31" d="M312,249.55a9.4,9.4,0,0,1-.31,4.32,17,17,0,0,1-4.19,6.51,19.57,19.57,0,0,1-4,3.23,7.08,7.08,0,0,1-1.24.58c-1,.35-1.76.29-2.12-.16a2.3,2.3,0,0,1-.15-1.84,31.26,31.26,0,0,1,3.45-8.65,19.35,19.35,0,0,1,3.17-4.17.6.6,0,0,1,.08-.08,10.48,10.48,0,0,1,2-1.55,2.54,2.54,0,0,1,1.61-.44C311.11,247.43,311.72,248.23,312,249.55Zm-.34,4.33a9.47,9.47,0,0,0,.31-4.3c-.26-1.32-.86-2.11-1.7-2.24a2.5,2.5,0,0,0-1.59.44,10,10,0,0,0-2,1.54.6.6,0,0,0-.08.08,19.76,19.76,0,0,0-3.16,4.15,31.54,31.54,0,0,0-3.44,8.63,2.3,2.3,0,0,0,.15,1.81q.52.67,2.1.15a6.27,6.27,0,0,0,1.23-.57,19.19,19.19,0,0,0,4-3.22A17,17,0,0,0,311.64,253.88Z" transform="translate(-91.89 -55.58)"/></g><g class="cls-8"><g class="cls-8"><path class="cls-3" d="M293.62,256.7l4.66,2.71a5.66,5.66,0,0,1,2.25,2.33c.53,1.06,0,2.49-1.61,4.25l-4.66-2.71c1.6-1.75,2.14-3.18,1.61-4.25A5.78,5.78,0,0,0,293.62,256.7Z" transform="translate(-91.89 -55.58)"/><g class="cls-37"><g class="cls-8"><path class="cls-3" d="M298.92,266l-4.66-2.71c.17-.18.32-.36.46-.53l4.66,2.71C299.24,265.63,299.09,265.81,298.92,266Z" transform="translate(-91.89 -55.58)"/><path class="cls-3" d="M299.38,265.46l-4.66-2.71c1.24-1.51,1.63-2.76,1.15-3.72a5.78,5.78,0,0,0-2.25-2.33l4.66,2.71a5.66,5.66,0,0,1,2.25,2.33C301,262.7,300.62,263.94,299.38,265.46Z" transform="translate(-91.89 -55.58)"/></g></g></g><g class="cls-8"><path class="cls-3" d="M289.8,269.54l-4.66-2.71c.93.54,2.38.47,4.15-.22a13.34,13.34,0,0,0,1.87-.9,13,13,0,0,0,3.1-2.43l4.66,2.71a13.94,13.94,0,0,1-5,3.33C292.18,270,290.73,270.08,289.8,269.54Z" transform="translate(-91.89 -55.58)"/><g class="cls-38"><g class="cls-8"><path class="cls-3" d="M289.8,269.54l-4.66-2.71a3.78,3.78,0,0,0,2.69.23l4.66,2.71A3.84,3.84,0,0,1,289.8,269.54Z" transform="translate(-91.89 -55.58)"/><path class="cls-3" d="M292.49,269.77l-4.66-2.71a10.37,10.37,0,0,0,1.46-.45,13.34,13.34,0,0,0,1.87-.9,13,13,0,0,0,3.1-2.43l4.66,2.71a13.94,13.94,0,0,1-5,3.33A10.37,10.37,0,0,1,292.49,269.77Z" transform="translate(-91.89 -55.58)"/></g></g></g><g class="cls-8"><path class="cls-4" d="M289.78,269.58l-4.66-2.71a1.87,1.87,0,0,1-.47-.37,4.77,4.77,0,0,1-1-3.18,7.78,7.78,0,0,1,1-4,7.32,7.32,0,0,1,2.57-2.54,4.42,4.42,0,0,1,.74-.35,6.8,6.8,0,0,1,4.5-.32,7.09,7.09,0,0,1,1.22.55l4.66,2.71a7.09,7.09,0,0,0-1.22-.55,6.8,6.8,0,0,0-4.5.32,3.75,3.75,0,0,0-.74.35,7.32,7.32,0,0,0-2.57,2.54,7.68,7.68,0,0,0-1,4,4.77,4.77,0,0,0,1,3.18A1.87,1.87,0,0,0,289.78,269.58Z" transform="translate(-91.89 -55.58)"/><g class="cls-39"><g class="cls-8"><path class="cls-4" d="M289.78,269.58l-4.66-2.71a1.87,1.87,0,0,1-.47-.37,4.77,4.77,0,0,1-1-3.18,7.78,7.78,0,0,1,1-4,5.51,5.51,0,0,1,.59-.84l4.66,2.7a6.14,6.14,0,0,0-.59.85,7.68,7.68,0,0,0-1,4,4.77,4.77,0,0,0,1,3.18A1.87,1.87,0,0,0,289.78,269.58Z" transform="translate(-91.89 -55.58)"/><path class="cls-4" d="M289.87,261.18l-4.66-2.7a7.34,7.34,0,0,1,2-1.7,4.42,4.42,0,0,1,.74-.35,12.34,12.34,0,0,1,1.44-.41l4.66,2.71a10.65,10.65,0,0,0-1.44.41,3.75,3.75,0,0,0-.74.35A7.47,7.47,0,0,0,289.87,261.18Z" transform="translate(-91.89 -55.58)"/><path class="cls-4" d="M294,258.73,289.37,256a5.68,5.68,0,0,1,3.06.09,7.09,7.09,0,0,1,1.22.55l4.66,2.71a7.09,7.09,0,0,0-1.22-.55A5.58,5.58,0,0,0,294,258.73Z" transform="translate(-91.89 -55.58)"/></g></g></g><path class="cls-31" d="M300.56,261.71c.54,1.08,0,2.53-1.63,4.31a13.83,13.83,0,0,1-5,3.34c-2.11.82-3.76.77-4.63-.15a4.77,4.77,0,0,1-1-3.18,7.68,7.68,0,0,1,1-4,7.32,7.32,0,0,1,2.57-2.54,3.75,3.75,0,0,1,.74-.35,6.8,6.8,0,0,1,4.5-.32A5.93,5.93,0,0,1,300.56,261.71ZM298.92,266c1.6-1.76,2.14-3.19,1.61-4.25a6,6,0,0,0-3.46-2.88,6.74,6.74,0,0,0-4.48.32,4.42,4.42,0,0,0-.74.35A7.26,7.26,0,0,0,289.3,262a7.76,7.76,0,0,0-1,4,4.76,4.76,0,0,0,1,3.16c.86.91,2.5,1,4.61.15a13.94,13.94,0,0,0,5-3.33Z" transform="translate(-91.89 -55.58)"/></g><path class="cls-40" d="M216,270.38c.82-.53-9.77-13.36-3.21-14.4,2.6-.42,5.17,12,8.66,22.82-2.17,1.26-2.27,3.29-4.14,4.9-2.08-3-3.9-9.27-3.71-11.22C213.71,271.49,215,271.08,216,270.38Z" transform="translate(-91.89 -55.58)"/><path class="cls-41" d="M223.05,304.14a5.72,5.72,0,0,1,2.51-2.5,3.47,3.47,0,0,1,3.62.48,15.92,15.92,0,0,1,1.4,1.55c1.3,1.37,2.83,1.43,4.43,1.8s3.5.09,5.15.93a1.45,1.45,0,0,1,.89,1.13,6.14,6.14,0,0,1-.42,3.2c-.41,1.27-1.08,2.79-2.36,3.14s-3-.7-4.18-1.05a29,29,0,0,0-9.44-1.41,2.84,2.84,0,0,1-2.49-.66c-1.3-1.58,0-5,.75-6.37Z" transform="translate(-91.89 -55.58)"/><path class="cls-26" d="M192.79,299.27a38.43,38.43,0,0,1,2.21-9.4,13.42,13.42,0,0,1,6.45-7.13l-.95,2.63a17.94,17.94,0,0,1,1.16-1.59,2.55,2.55,0,0,1,.54-.52c.67-.44,1.16.1,2.16.66,1.21.69,2.58,1.05,3.84,1.63,4,1.87,4,2.78,7.44,1.64a68.71,68.71,0,0,1-1.91,8.19c-1.06,3.65-4.21,3-4.95,4.84-.57,1.42-5.65,7.65-4.16,9.57.5.64,2.95,0,4.91-.35,6.51-1.34,12.34-4.28,14.56-4.72,1.36-.27-.18,1,.8,2.44a3.93,3.93,0,0,1,.64,3.91c-.59,1.26-3.85,2-5.18,2.57-3.2,1.35-5.71,3.49-8,4.48a30.54,30.54,0,0,1-5.88,1.4c-3.38.71-8.16,1.8-11.26.3a6,6,0,0,1-3.7-3.89C189.56,310.86,192,304.35,192.79,299.27Z" transform="translate(-91.89 -55.58)"/><path class="cls-42" d="M225.77,289.33a104.92,104.92,0,0,1,12.71,5c1.94.86,3.32,4.83,1.66,8.14-.81,1.62-.63,1.14-4.42.63-2-.27-4.88-1-6.92-1.28-4.21-.64-23.17-2.58-24-11.6-.13-1.36,2.41-2.54,3.53-3.44C211.54,284.18,221.75,288.16,225.77,289.33Z" transform="translate(-91.89 -55.58)"/><path class="cls-43" d="M198,256.87a19.3,19.3,0,0,1,4.56-1.77c.32-.07,1.4.33,1.72.26a11.92,11.92,0,0,1,7.21.59l.07,0v14.78H197.37Z" transform="translate(-91.89 -55.58)"/><path class="cls-44" d="M198,256.87c-.31.19,1.79,9,8.7,6.05,3.51-1.51,1.7-4.13,3-6.52a1.51,1.51,0,0,1,1.25-.72c3.17-.23,3.69,3.75,4.78,5.92,4.29,8.56,2.89,8.55,1.91,14-1.39,7.71,3.42,8.69.14,14.69-3,5.53-9.22,7-15,8.34-2.48.58-6.38.94-8.22-1.3-1.7-2.05-.68-5.4.1-7.63,1.56-4.5,4-8.06,1.47-15.65C192.46,262.72,186.07,264.07,198,256.87Z" transform="translate(-91.89 -55.58)"/><path class="cls-42" d="M214.82,262a.35.35,0,0,1-.16.08c-.57.13-1.84-.57-2.37-.79a21.46,21.46,0,0,1-4.39-2.39,6.08,6.08,0,0,1-2.07-2.15,7.1,7.1,0,0,1-.37-3.7,20.91,20.91,0,0,1,3.93-10.23,6.08,6.08,0,0,1,2.8-2.63c3.83-1.23,4.05,6.55,4.21,8.67,0,.18,0,.36,0,.54a36,36,0,0,1-1,10.8C215.35,260.67,215.26,261.72,214.82,262Z" transform="translate(-91.89 -55.58)"/><path class="cls-43" d="M199.5,257.59c-.16,5.31,9.11,7.52,9,2.53-.18-7-.58-9.88-3.63-11a8,8,0,0,0-2.59-.54c-3.22-.07-2,1.69-1.85,2.92C200.76,255.17,199.55,255.68,199.5,257.59Z" transform="translate(-91.89 -55.58)"/><path class="cls-41" d="M212.9,331a8.5,8.5,0,0,0,1.77-2,33.72,33.72,0,0,0,1.63-3,42.42,42.42,0,0,1,2.25-3.93c0-.09,1.9-2.45,1.95-2.54l-3.74-3.93a5.11,5.11,0,0,0-1.56.09A3.34,3.34,0,0,0,213,317.3a12.9,12.9,0,0,0-.81,3,7.26,7.26,0,0,1-1.94,3.26,8,8,0,0,0-1.84,3.36,3.23,3.23,0,0,0,.17,2.37,4.19,4.19,0,0,0,1.91,1.58,4.08,4.08,0,0,0,1.26.47A1.22,1.22,0,0,0,212.9,331Z" transform="translate(-91.89 -55.58)"/><path class="cls-42" d="M238.44,304.73a22,22,0,0,1-1.72,1.48c-4.22,3.43-9.18,5.8-12.87,10l-2,2.32c-.81.93-1.83,1.92-3.11,1.74a3.08,3.08,0,0,1-1.74-1,4.68,4.68,0,0,1-1.23-2.76c-.12-1.24.68-1.74,1.49-2.51,2.11-2,3.13-4.82,4.59-7.28a31.46,31.46,0,0,1,5.86-6.66,17.1,17.1,0,0,1,4-2.84c2.46-1.19,6.12-1.36,8.14.85a4.16,4.16,0,0,1,.27,4.62A8.24,8.24,0,0,1,238.44,304.73Z" transform="translate(-91.89 -55.58)"/><path class="cls-40" d="M203.21,254.43c-.24-.25-.48-.51-.71-.78a13.85,13.85,0,0,1-2.22-3.12c-1.63-3.59-1.24-8.12,1.91-10.75a8.26,8.26,0,0,1,8.22-1.3,12.58,12.58,0,0,1,2.07,1.13,6.16,6.16,0,0,1,1.54,1.33,5.6,5.6,0,0,1,.62,1.19,6,6,0,0,1,.43,1.44c.31,2.24-1.38,4.32-.78,6.56.13.49.35,1,.47,1.45a1.75,1.75,0,0,1-.21,1.45c-.29.38-.64.54-.83,1s-.47,1.22-.71,1.82a9.52,9.52,0,0,1-.94,1.89c-1,1.41-2.21,1.37-3.65.62A20.34,20.34,0,0,1,203.21,254.43Z" transform="translate(-91.89 -55.58)"/><path class="cls-42" d="M197.6,243.46c.61-4.24,1.94-4.83,3.7-6a8.62,8.62,0,0,1,5.91-1.23,11.9,11.9,0,0,1,5.66,2.51l.2.15a5.83,5.83,0,0,1,2,2.5,7.38,7.38,0,0,1,.4,2.79,1,1,0,0,1-.14.56.85.85,0,0,1-.51.25,4.91,4.91,0,0,1-4.39-1.38,5.11,5.11,0,0,1-2,2.51,27.77,27.77,0,0,0-2.69,2.24c-.52.56-.75,1.17-1.48,1.54a1.5,1.5,0,0,1-1.72,0c-.57-.33-1.13-.86-1.82-.53s-.51,1.12-.42,1.71c0,.11.16.94-.17.91S196.87,248.55,197.6,243.46Z" transform="translate(-91.89 -55.58)"/><path class="cls-42" d="M205.39,261.14c-2.44.39-7-.69-8.42-2.72a10.63,10.63,0,0,1-2.2-6.84c.19-2.46.21-10.37,5.72-13.59,3.07-1.79,5.86,7.72,3.24,10.21-.77.72-1.85,1.07-2.56,1.87-1.07,1.22.19,3,.35,4.51S204.51,261.28,205.39,261.14Z" transform="translate(-91.89 -55.58)"/><path class="cls-40" d="M201.24,247.77c-1.44-.26-2,1.51-1.16,3a6.89,6.89,0,0,0,1.07,1.22c2.36,2.49,3.27.17,2.52-.67C201.94,249.36,203.05,248.09,201.24,247.77Z" transform="translate(-91.89 -55.58)"/><path class="cls-43" d="M201.81,251.17c-.15-.17-1.7-1.33-.5-1.87a.5.5,0,0,1,.66.49c0,.18-.07.35-.06.52a1,1,0,0,0,.08.3c.12.25.6.54.46.88S201.89,251.26,201.81,251.17Z" transform="translate(-91.89 -55.58)"/><path class="cls-40" d="M191.6,284.18c-.71-3.72-1.11-8.51-1.81-14.51a15.82,15.82,0,0,1,.2-4.9c.24-1.18.83-4,2.49-3.7a7.14,7.14,0,0,1,4.58,3.28,16.41,16.41,0,0,1,1.76,3.83,10.48,10.48,0,0,1,.47,3.86c-.09,3.72-.43,8.56-.55,12.29,0,.71-3.43,4.74-5.46,3.24C192.29,286.83,192,286.2,191.6,284.18Z" transform="translate(-91.89 -55.58)"/><path class="cls-40" d="M226.94,297.18a5.39,5.39,0,0,0,0-.9,6.17,6.17,0,0,0-.1-.62c-.14-.59-.18-1.21-.38-1.79s-.65-1.15-.91-1.76c-.1-.25-.18-.51-.26-.77a7.85,7.85,0,0,1-.22-1,1.32,1.32,0,0,0-.49-.67,1.45,1.45,0,0,0-.54-.24,2.4,2.4,0,0,0-2,.15,2.2,2.2,0,0,0-.85.69c-.16.24-.08.61-.08.92l-.06.12c-.15.42-.19.85-.36,1.28a3.55,3.55,0,0,0-.33,1.47c0,.42,0,.84,0,1.27a4.42,4.42,0,0,0,.53,2c.1.2.33.68.58.73.53.1.54-.79.53-1.08a7.87,7.87,0,0,1,0-.84c0-.21,0-.73.17-.88s.41,0,.53,0a2.31,2.31,0,0,1,1,1.82,5,5,0,0,1-.15,1.49,3.73,3.73,0,0,0-.2.78c0,.3.18.53.47.37s.29-.23.44-.13.22.35.42.34.29-.2.38-.32.4-.26.56-.44a2.14,2.14,0,0,0,.24-.53c.07-.15.13-.31.2-.46s.17-.43.23-.15c0,.11,0,.21,0,.31.15.25.41-.14.48-.29A2.52,2.52,0,0,0,226.94,297.18Z" transform="translate(-91.89 -55.58)"/><path class="cls-40" d="M217.52,280c2.3-.89.82-2.88,3.28-3.34,2.21,6.54,3.79,11.77,4.33,14.12.61,2.65-4,1.95-4.14.54C220.66,286.72,217.89,284.84,217.52,280Z" transform="translate(-91.89 -55.58)"/><path class="cls-40" d="M205.6,298.8c.29.33,1,1.5,1.18,1.66s1.11,1.33,1.33,1.69c.34.53.71,1.05,1,1.59a15.15,15.15,0,0,1,.69,1.69c.05.17.24.54.45.37a1,1,0,0,0,.2-.57c0-.26.13-1.4.13-1.52s1.55,3.61,2,3.62a1,1,0,0,0,.26-.8c0-.26-.24-1.79-.24-1.79s.65,2.25,1,2.49c.71.43.72-.86.47-1.83-.11-.45-.34-.87-.47-1.32,0-.2-.34-1.11.18-.94.34.1,1,1,1.12,1.16s1.1,1.18,1.16,1.23.54.34.6,0a1.86,1.86,0,0,0-.25-1,15.08,15.08,0,0,0-1.58-2.65,8.41,8.41,0,0,0-.87-1.1c-1.13-1.15-2.54-2-3.79-3-.35-.3-.71-.58-1-.89s-.45-.56-.75-.59C207.93,296.2,205.44,298.66,205.6,298.8Z" transform="translate(-91.89 -55.58)"/><path class="cls-40" d="M205.68,298.89c-1.51-1.8-13.57-9.89-13.9-14-.08-1,1.12-1.66,2.11-2.56.74-.67,4.25-.14,4.82.59.89,1.15,8.22,10.4,10.89,14.26C209.94,297.68,206.35,299.69,205.68,298.89Z" transform="translate(-91.89 -55.58)"/><g class="cls-8"><polygon class="cls-10" points="151.69 289.66 129.22 276.6 129.15 251.75 151.62 264.81 151.69 289.66"/><polygon class="cls-7" points="140.07 267.46 117.6 254.4 129.15 251.75 151.62 264.81 140.07 267.46"/><polygon class="cls-27" points="129.15 251.75 150.77 264.32 150.77 239.27 129.15 251.75"/><polygon class="cls-10" points="173.25 252.33 150.77 239.27 150.77 264.32 151.62 264.81 173.25 252.33"/><polygon class="cls-27" points="173.25 252.33 173.32 277.17 151.69 289.66 151.62 264.81 173.25 252.33"/><polygon class="cls-7" points="173.25 252.33 183.17 254.01 161.55 266.5 151.62 264.81 173.25 252.33"/><polygon class="cls-17" points="150.77 239.27 144.41 230.24 122.78 242.72 129.14 251.76 150.77 239.27"/><polygon class="cls-7" points="179.76 243.91 157.29 230.85 150.78 239.27 173.25 252.33 179.76 243.91"/></g><g class="cls-8"><polygon class="cls-10" points="72.91 284.14 47.46 269.36 47.38 241.22 72.83 256.01 72.91 284.14"/><polygon class="cls-7" points="59.75 259.01 34.3 244.22 47.38 241.22 72.83 256.01 59.75 259.01"/><polygon class="cls-27" points="47.38 241.22 71.87 255.45 71.87 227.08 47.38 241.22"/><polygon class="cls-10" points="97.31 241.87 71.87 227.08 71.87 255.45 72.83 256.01 97.31 241.87"/><polygon class="cls-27" points="97.31 241.87 97.39 270.01 72.91 284.14 72.83 256.01 97.31 241.87"/><polygon class="cls-7" points="97.31 241.87 108.55 243.78 84.07 257.92 72.83 256.01 97.31 241.87"/><polygon class="cls-17" points="71.86 227.09 64.66 216.86 40.17 231 47.37 241.23 71.86 227.09"/><polygon class="cls-7" points="104.69 232.35 79.25 217.56 71.88 227.09 97.33 241.88 104.69 232.35"/></g><path class="cls-43" d="M179.44,187.62c-.41-.46-.81-.94-1.19-1.41q-3.15-3.87-6-8c-1.13-1.63-2.28-3.27-3.27-5-.85-1.47-2.42-4.16-2.71-5.88-.52-3.19,2.46-6.25,5.91-6.4,1.48-.06,2.68,1.08,3.75,2a22.6,22.6,0,0,1,5.68,8.07c1.72,4,4,7.64,5.7,11.62a13.22,13.22,0,0,1,.88,2.37c.78,3.87-1.22,6.8-4.08,6.22a6.58,6.58,0,0,1-3.06-1.91C180.52,188.8,180,188.22,179.44,187.62Z" transform="translate(-91.89 -55.58)"/><path class="cls-43" d="M181,187.83c.45,1.4,1.95,3.81,4.33,3.46,1.68-.25,12.17-6.1,20.3-9.91,0-1.91-1.77-2.9-2.6-4.64-5.62,1.85-18.47,3.41-23.55,6.64C177.26,184.77,180.2,185.48,181,187.83Z" transform="translate(-91.89 -55.58)"/><g id="_10_woman_smart_watch" data-name="10_woman_smart_watch"><g id="character"><g id="character-2" data-name="character"><path class="cls-43" d="M153.75,163a25.48,25.48,0,0,1,6.1-2.38c.43-.1,1.87.45,2.31.36a15.91,15.91,0,0,1,9.65.78l.1,0v19.8h-19Z" transform="translate(-91.89 -55.58)"/><path class="cls-4" d="M167.86,160.23H168C167.55,160.09,167.28,160.22,167.86,160.23Z" transform="translate(-91.89 -55.58)"/><path class="cls-44" d="M177.25,204.23l-12.56,7.24-1.85,1.06a17.52,17.52,0,0,1-2.18-1c-2.35-1.21-5.1-1.4-7.21-3-.4-.31-.62-.46-.71-.89-.05-.26,0-.83,0-1.14A31.64,31.64,0,0,1,153,203a32.67,32.67,0,0,0-.27-7.33c-1-6.19-4.63-11.59-6.92-17.43a33,33,0,0,1-1.11-3.26c-.27-1-1.38-2.07-1.3-2.88.41-4.56,6.61-6.85,10.4-9.14,2.91,8.54,16.33,12.05,15.7-.57a2.11,2.11,0,0,0-1.43-2.14c8.8.32,7.29,6.7,9.7,12.46.65,1.56,1.7,3,2.22,4.62C182.94,186.46,175.24,186.8,177.25,204.23Z" transform="translate(-91.89 -55.58)"/><path class="cls-26" d="M164.69,211.47l-18.81,10.84c1.26-8.12,3.89-11.53,6.89-17.13-.4.73,2.24,3.07,2.86,3.47A21.28,21.28,0,0,0,164.69,211.47Z" transform="translate(-91.89 -55.58)"/></g></g></g><path class="cls-43" d="M141.52,182.28c-1-7.53,2-13.38,4.85-13.3,6.66.16,5.3,4.91,5.43,16.9,0,1.92-1.12,11.5-3.52,13.88a4.45,4.45,0,0,1-3.57.87C139.57,199.65,141.8,184.3,141.52,182.28Z" transform="translate(-91.89 -55.58)"/><path class="cls-45" d="M137.22,175.78a11.66,11.66,0,0,1-1.66-.35,8.84,8.84,0,0,0-2.52-.22h-6.95c-.38,0-.85.07-1,.43a.67.67,0,0,0,0,.48,1.81,1.81,0,0,0,1.2.91,7.86,7.86,0,0,0,1.53.15,11.6,11.6,0,0,1,2.55.41.38.38,0,0,1,.2.1c.08.12,0,.28-.11.39a5.87,5.87,0,0,1-1.53,1.23,9.69,9.69,0,0,1-.91.46c-.29.13-.52.33-.81.43a29.26,29.26,0,0,0-4.69,1.64c-.49.26-1.1,1-.21,1.26a4.63,4.63,0,0,0,2.23-.25c.88-.24,1.78-.44,2.68-.61.22,0,.44-.06.65-.11s.25-.14.36-.11c.59.19-.69,1-.84,1.13l-1.75,1.36a3.46,3.46,0,0,0-1.5,1.93c0,.27,0,.49.2.61a1.38,1.38,0,0,0,.7,0,2.85,2.85,0,0,0,1.11-.71,19,19,0,0,1,2.63-1.91,8.56,8.56,0,0,1,1.38-.78c.62-.24.41.38.12.66a11.57,11.57,0,0,0-1.74,2,3.68,3.68,0,0,0-.52,1.12c-.07.45.42.58.77.46a2.62,2.62,0,0,0,.89-.66l1.9-1.92a5.32,5.32,0,0,1,.86-.85c.24-.13.53-.11.49.23a5.19,5.19,0,0,1-.51,1.28,2.35,2.35,0,0,0-.16,1,.37.37,0,0,0,.19.37.39.39,0,0,0,.33-.1,4.23,4.23,0,0,0,1.36-1.4,11.89,11.89,0,0,1,1.32-1.76,10.73,10.73,0,0,1,3.27-2.84c.78-.4,1.63-.66,2.39-1.12a1,1,0,0,0,.45-.43,1.08,1.08,0,0,0,0-.71,4.24,4.24,0,0,0-1.24-2.11,5.82,5.82,0,0,0-2.33-.87Z" transform="translate(-91.89 -55.58)"/><path class="cls-45" d="M135.17,177.51c1.69-1.62,3.74-.27,5.87.1,5.05,8.74,11.28,18.61,7,22.19-1,.82-4.06,1.93-6-.12C139.63,197.22,136.38,180.16,135.17,177.51Z" transform="translate(-91.89 -55.58)"/><path class="cls-43" d="M210.41,171.67a.79.79,0,0,1,.72.05c.27.23.14.72,0,1a2.79,2.79,0,0,1-1,1.09c-.54.36-1.14.63-1.65,1a1,1,0,0,0-.33.42.41.41,0,0,0,.13.48c.29.18.82-.13,1.09-.22a10.34,10.34,0,0,0,1.27-.58c1.64-.9,3-2.19,4.73-3a.71.71,0,0,1,1.21.53c.07.35.15.69.22,1a1.43,1.43,0,0,1,0,.58,1.38,1.38,0,0,1-.48.69l-.5.48c-.13.13-.34.25-.45.38a.15.15,0,0,0,0,.18c.06.06.16,0,.24,0l.46-.21a.52.52,0,0,1,.3-.06.35.35,0,0,1,.2.34,1,1,0,0,1-.29.72,2.68,2.68,0,0,1-.62.49,13.24,13.24,0,0,1-1.67,1c-1.11.54-2.16,1.21-3.29,1.7A27,27,0,0,1,207.1,181c-1.3.34-2.62.71-3.92,1-1.06.24-2-1-2.17-1.9a2.22,2.22,0,0,1,0-.63,3,3,0,0,1,1.1-2c.3-.27,1.8-1.37,2.22-1.74a24.62,24.62,0,0,1,5.7-3.9A2.74,2.74,0,0,1,210.41,171.67Z" transform="translate(-91.89 -55.58)"/><path class="cls-42" d="M176.45,164.78a.57.57,0,0,1-.21.13c-.73.28-2.54-.41-3.28-.59a29.22,29.22,0,0,1-6.27-2.34,8.15,8.15,0,0,1-3.14-2.45,9.55,9.55,0,0,1-1.19-4.82,27.91,27.91,0,0,1,3.27-14.28c.77-1.57,1.64-3.24,3.21-4,4.83-2.36,6.59,7.89,7.21,10.67l.15.71a47.51,47.51,0,0,1,.74,14.47C176.88,162.88,177,164.29,176.45,164.78Z" transform="translate(-91.89 -55.58)"/><path class="cls-43" d="M155.32,161.79c.8,7.06,13.48,8.24,12.36,1.65-1.56-9.17-2.63-13-6.88-13.81a11.05,11.05,0,0,0-3.53-.23c-4.27.53-2.29,2.62-1.9,4.22C156.54,158.36,155,159.25,155.32,161.79Z" transform="translate(-91.89 -55.58)"/><path class="cls-40" d="M159.64,156.92c-.37-.29-.73-.59-1.09-.9a19.08,19.08,0,0,1-3.53-3.71c-2.82-4.44-3.16-10.51.5-14.59a11.06,11.06,0,0,1,10.63-3.27,16.74,16.74,0,0,1,3,1.1,7.85,7.85,0,0,1,2.28,1.48,7.09,7.09,0,0,1,1.05,1.44,8,8,0,0,1,.84,1.83c.83,2.91-1,6,.2,8.83.27.63.65,1.2.9,1.83a2.35,2.35,0,0,1,0,2c-.31.55-.74.84-.92,1.45-.24.83-.39,1.7-.59,2.54a12.38,12.38,0,0,1-.88,2.68c-1.05,2-2.68,2.23-4.71,1.52A27.35,27.35,0,0,1,159.64,156.92Z" transform="translate(-91.89 -55.58)"/><path class="cls-42" d="M150.15,143.45c0-5.72,1.65-6.74,3.76-8.64a11.42,11.42,0,0,1,7.58-2.74,16,16,0,0,1,8,2.24l.28.17a7.7,7.7,0,0,1,3.06,2.93,9.85,9.85,0,0,1,1,3.63,1.23,1.23,0,0,1-.07.76,1.11,1.11,0,0,1-.63.42,6.59,6.59,0,0,1-6.08-1,6.71,6.71,0,0,1-2.11,3.69,36.8,36.8,0,0,0-3.14,3.48c-.57.84-.77,1.68-1.65,2.32a2,2,0,0,1-2.3.26c-.81-.33-1.65-.92-2.51-.35s-.45,1.58-.23,2.34c0,.14.39,1.21,0,1.23S150.14,150.33,150.15,143.45Z" transform="translate(-91.89 -55.58)"/><path class="cls-42" d="M163.79,165.38c-3.15,1-9.39.41-11.65-2a14.23,14.23,0,0,1-4.21-8.64c-.21-3.3-1.68-13.76,5-19.06,3.73-3,9.22,9.11,6.22,12.89-.88,1.11-2.25,1.76-3,3-1.19,1.82.81,3.95,1.31,5.9S162.66,165.73,163.79,165.38Z" transform="translate(-91.89 -55.58)"/><path class="cls-40" d="M155.77,148.47c-2-.06-2.36,2.38-1,4.2a10.08,10.08,0,0,0,1.64,1.41c3.6,2.85,4.36-.4,3.22-1.37C157,150.44,158.23,148.55,155.77,148.47Z" transform="translate(-91.89 -55.58)"/><path class="cls-43" d="M157.17,152.86c-.23-.2-2.5-1.43-1-2.37a.66.66,0,0,1,1,.53c0,.23,0,.46,0,.69a1.08,1.08,0,0,0,.17.38c.2.31.89.6.77,1.07S157.3,153,157.17,152.86Z" transform="translate(-91.89 -55.58)"/><g class="cls-8"><polygon class="cls-10" points="119.25 125.73 111.29 121.1 106.92 118.56 100.96 115.1 100.9 94.18 100.88 87.4 106.92 90.91 111.29 93.45 119.17 98.03 119.17 98.07 119.19 104.81 119.25 125.73"/><polygon class="cls-27" points="119.23 104.83 119.19 104.81 100.9 94.18 100.88 87.4 106.92 90.91 111.29 93.45 119.17 98.03 119.17 98.07 119.23 104.83"/><polygon class="cls-29" points="119.17 98.03 100.88 87.4 119.78 76.49 138.07 87.12 119.17 98.03"/><polygon class="cls-27" points="138.15 114.82 131.42 118.7 127.03 121.23 119.25 125.73 119.17 98.07 119.17 98.03 127.03 93.49 131.42 90.96 138.07 87.12 138.09 93.94 138.15 114.82"/></g><g class="cls-8"><polygon class="cls-24" points="119.23 102.39 99.72 91.06 99.64 81.81 119.15 93.15 119.23 102.39"/><polygon class="cls-30" points="138.09 93.94 119.23 104.83 119.17 98.07 119.17 98.03 127.03 93.49 131.42 90.96 138.07 87.12 138.09 93.94"/><polygon class="cls-17" points="139.3 81.52 131.42 86.07 127.03 88.6 119.15 93.15 111.29 88.58 106.92 86.05 99.64 81.81 107.46 77.3 111.84 74.77 119.79 70.18 127.08 74.41 131.44 76.95 139.3 81.52"/><polygon class="cls-10" points="139.3 81.52 139.39 90.76 119.23 102.39 119.15 93.15 139.3 81.52"/></g><polygon class="cls-3" points="111.29 88.58 111.29 93.45 111.29 121.1 106.92 118.56 106.92 90.91 106.92 86.05 111.29 88.58"/><polygon class="cls-31" points="131.42 118.7 127.03 121.23 127.03 93.49 127.03 88.6 131.42 86.07 131.42 90.96 131.42 118.7"/><polygon class="cls-31" points="138.17 89.11 136.15 87.81 133.79 95.04 133.79 89.63 133.79 84.74 138.17 82.21 138.17 87.1 138.17 89.11"/><polygon class="cls-4" points="131.42 86.07 127.03 88.6 119.15 84.05 114.77 81.52 107.46 77.3 111.84 74.77 119.15 78.99 123.53 81.52 131.42 86.07"/><polygon class="cls-4" points="138.17 82.22 133.79 84.75 118.06 82.76 122.44 80.23 138.17 82.22"/><polygon class="cls-4" points="131.44 76.95 123.53 81.52 119.15 84.05 111.29 88.58 106.92 86.05 114.77 81.52 119.15 78.99 127.08 74.41 131.44 76.95"/><g class="cls-8"><g class="cls-8"><g class="cls-46"><g class="cls-8"><path class="cls-3" d="M224.55,126.75l-4.33-2.51a8.53,8.53,0,0,0,.29-4,2.65,2.65,0,0,0-1.08-1.9l4.32,2.51a2.71,2.71,0,0,1,1.09,1.9A8.79,8.79,0,0,1,224.55,126.75Z" transform="translate(-91.89 -55.58)"/></g></g></g><g class="cls-8"><g class="cls-8"><path class="cls-3" d="M212.21,134.62v.6l1.95,1.13a1.68,1.68,0,0,0,1.17.08Z" transform="translate(-91.89 -55.58)"/><path class="cls-3" d="M217.56,128.89c-.37.45-.77.91-1.21,1.36a17.72,17.72,0,0,1-3.67,3,3.57,3.57,0,0,1-.47.25v1.14l3.12,1.81.53-.15a7.55,7.55,0,0,0,1.15-.53,18.42,18.42,0,0,0,3.67-3c.43-.45.83-.9,1.21-1.36Z" transform="translate(-91.89 -55.58)"/><path class="cls-3" d="M221.89,131.4l-4.33-2.51a13.81,13.81,0,0,0,2.66-4.65l4.33,2.51A14.16,14.16,0,0,1,221.89,131.4Z" transform="translate(-91.89 -55.58)"/></g></g><g class="cls-8"><g class="cls-8"><path class="cls-4" d="M217,126.44a19.27,19.27,0,0,1,1.8-2.63l-4.32-2.51a19.27,19.27,0,0,0-1.8,2.63,30.05,30.05,0,0,0-3,7.1l2.57,1.82v2.42l1.92,1.12a1,1,0,0,1-.24-.22,2.14,2.14,0,0,1-.15-1.7A29.38,29.38,0,0,1,217,126.44Z" transform="translate(-91.89 -55.58)"/><path class="cls-4" d="M218.75,123.81l-4.32-2.51a15.31,15.31,0,0,1,1.13-1.24l.08-.08a9.91,9.91,0,0,1,1.82-1.44,3.09,3.09,0,0,1,.94-.38l4.32,2.51a3.63,3.63,0,0,0-.94.38,9.89,9.89,0,0,0-1.81,1.44l-.08.08A13.74,13.74,0,0,0,218.75,123.81Z" transform="translate(-91.89 -55.58)"/><path class="cls-4" d="M222.72,120.67l-4.32-2.51a1.49,1.49,0,0,1,.55,0,1.43,1.43,0,0,1,.5.18l4.32,2.51a1.45,1.45,0,0,0-.49-.18A1.81,1.81,0,0,0,222.72,120.67Z" transform="translate(-91.89 -55.58)"/></g></g><path class="cls-31" d="M224.87,122.74a8.74,8.74,0,0,1-.29,4,15.81,15.81,0,0,1-3.89,6,17.62,17.62,0,0,1-3.69,3,6.74,6.74,0,0,1-1.14.54c-1,.32-1.64.27-2-.15a2.14,2.14,0,0,1-.15-1.7,29.38,29.38,0,0,1,3.21-8,17.64,17.64,0,0,1,2.94-3.87l.08-.08a9.89,9.89,0,0,1,1.81-1.44,2.44,2.44,0,0,1,1.5-.41C224.06,120.77,224.63,121.51,224.87,122.74Zm-.32,4a8.79,8.79,0,0,0,.29-4c-.24-1.22-.8-2-1.58-2.08a2.4,2.4,0,0,0-1.48.41,10.21,10.21,0,0,0-1.8,1.43.6.6,0,0,0-.08.08,18,18,0,0,0-2.93,3.85,29.23,29.23,0,0,0-3.2,8,2.09,2.09,0,0,0,.15,1.68c.32.41,1,.46,1.94.14a7.55,7.55,0,0,0,1.15-.53,18.42,18.42,0,0,0,3.67-3A15.88,15.88,0,0,0,224.55,126.75Z" transform="translate(-91.89 -55.58)"/></g><g class="cls-8"><g class="cls-8"><path class="cls-3" d="M207.83,129.37l4.32,2.52a5.23,5.23,0,0,1,2.09,2.16c.49,1,0,2.31-1.49,3.94l-4.33-2.51c1.49-1.63,2-3,1.49-3.94A5.35,5.35,0,0,0,207.83,129.37Z" transform="translate(-91.89 -55.58)"/><g class="cls-47"><g class="cls-8"><path class="cls-3" d="M212.75,138l-4.33-2.51a6.37,6.37,0,0,0,.43-.5l4.32,2.52Z" transform="translate(-91.89 -55.58)"/><path class="cls-3" d="M213.17,137.5,208.85,135c1.15-1.4,1.51-2.56,1.06-3.44a5.35,5.35,0,0,0-2.08-2.17l4.32,2.52a5.23,5.23,0,0,1,2.09,2.16C214.68,134.93,214.33,136.09,213.17,137.5Z" transform="translate(-91.89 -55.58)"/></g></g></g><g class="cls-8"><path class="cls-3" d="M204.29,141.29,200,138.77c.86.51,2.2.44,3.85-.2a11.47,11.47,0,0,0,1.73-.84,12,12,0,0,0,2.88-2.25l4.33,2.51a12.54,12.54,0,0,1-2.88,2.26,13.12,13.12,0,0,1-1.74.83C206.49,141.72,205.15,141.79,204.29,141.29Z" transform="translate(-91.89 -55.58)"/><g class="cls-48"><g class="cls-8"><path class="cls-3" d="M204.29,141.29,200,138.77a3.47,3.47,0,0,0,2.49.21l4.33,2.52A3.58,3.58,0,0,1,204.29,141.29Z" transform="translate(-91.89 -55.58)"/><path class="cls-3" d="M206.78,141.5,202.45,139a7.4,7.4,0,0,0,1.36-.41,11.47,11.47,0,0,0,1.73-.84,12,12,0,0,0,2.88-2.25l4.33,2.51a12.54,12.54,0,0,1-2.88,2.26,13.12,13.12,0,0,1-1.74.83A8.58,8.58,0,0,1,206.78,141.5Z" transform="translate(-91.89 -55.58)"/></g></g></g><g class="cls-8"><path class="cls-4" d="M204.26,141.32l-4.32-2.51a2.07,2.07,0,0,1-.44-.34,4.46,4.46,0,0,1-1-3,7.23,7.23,0,0,1,.93-3.71,6.89,6.89,0,0,1,2.39-2.36,3.79,3.79,0,0,1,.69-.32,6.32,6.32,0,0,1,4.17-.3,6.12,6.12,0,0,1,1.13.52l4.33,2.51a6.09,6.09,0,0,0-1.13-.51,6.31,6.31,0,0,0-4.17.29,4.81,4.81,0,0,0-.7.33,6.86,6.86,0,0,0-2.38,2.36,7.19,7.19,0,0,0-.94,3.71,4.45,4.45,0,0,0,1,2.95A1.58,1.58,0,0,0,204.26,141.32Z" transform="translate(-91.89 -55.58)"/><g class="cls-49"><g class="cls-8"><path class="cls-4" d="M204.26,141.32l-4.32-2.51a2.07,2.07,0,0,1-.44-.34,4.46,4.46,0,0,1-1-3,7.23,7.23,0,0,1,.93-3.71A6.88,6.88,0,0,1,200,131l4.33,2.51a5.32,5.32,0,0,0-.55.79,7.19,7.19,0,0,0-.94,3.71,4.45,4.45,0,0,0,1,2.95A1.58,1.58,0,0,0,204.26,141.32Z" transform="translate(-91.89 -55.58)"/><path class="cls-4" d="M204.35,133.53,200,131a7.18,7.18,0,0,1,1.84-1.58,3.79,3.79,0,0,1,.69-.32,12,12,0,0,1,1.34-.38l4.32,2.51a11.9,11.9,0,0,0-1.33.38,4.81,4.81,0,0,0-.7.33A6.91,6.91,0,0,0,204.35,133.53Z" transform="translate(-91.89 -55.58)"/><path class="cls-4" d="M208.21,131.25l-4.32-2.51a5.24,5.24,0,0,1,2.83.08,6.12,6.12,0,0,1,1.13.52l4.33,2.51a6.09,6.09,0,0,0-1.13-.51A5.27,5.27,0,0,0,208.21,131.25Z" transform="translate(-91.89 -55.58)"/></g></g></g><path class="cls-31" d="M214.26,134c.51,1,0,2.35-1.5,4a12.39,12.39,0,0,1-2.89,2.26,12.05,12.05,0,0,1-1.74.84c-2,.76-3.49.71-4.3-.14a4.45,4.45,0,0,1-1-2.95,7.19,7.19,0,0,1,.94-3.71,6.86,6.86,0,0,1,2.38-2.36,4.81,4.81,0,0,1,.7-.33,6.31,6.31,0,0,1,4.17-.29A5.5,5.5,0,0,1,214.26,134Zm-1.51,4c1.48-1.63,2-3,1.49-3.94a5.54,5.54,0,0,0-3.21-2.68,6.35,6.35,0,0,0-4.16.3,3.79,3.79,0,0,0-.69.32,6.75,6.75,0,0,0-2.36,2.34,7.2,7.2,0,0,0-.93,3.68,4.42,4.42,0,0,0,1,2.94c.81.84,2.33.89,4.28.13a13.12,13.12,0,0,0,1.74-.83A12.54,12.54,0,0,0,212.75,138Z" transform="translate(-91.89 -55.58)"/></g><g class="cls-8"><polygon class="cls-10" points="82.85 306.21 76.02 302.24 72.27 300.07 67.15 297.09 67.1 284.97 67.08 279.15 72.27 282.16 76.02 284.34 82.78 288.27 82.78 288.31 82.8 294.09 82.85 306.21"/><polygon class="cls-27" points="82.83 294.11 82.8 294.09 67.1 284.97 67.08 279.15 72.27 282.16 76.02 284.34 82.78 288.27 82.78 288.31 82.83 294.11"/><polygon class="cls-29" points="82.78 288.27 67.08 279.15 83.3 271.82 98.99 278.91 82.78 288.27"/><polygon class="cls-27" points="99.06 296.85 93.29 300.19 89.53 302.36 82.85 306.21 82.78 288.31 82.78 288.27 89.53 284.38 93.29 282.21 98.99 278.91 99.01 284.77 99.06 296.85"/></g><g class="cls-8"><polygon class="cls-24" points="82.83 292.02 66.09 282.29 66.02 276.39 82.76 286.12 82.83 292.02"/><polygon class="cls-30" points="99.01 284.77 82.83 294.11 82.78 288.31 82.78 288.27 89.53 284.38 93.29 282.21 98.99 278.91 99.01 284.77"/><polygon class="cls-17" points="100.05 276.14 93.29 280.04 89.53 282.21 82.76 286.12 76.02 282.2 72.27 280.02 66.02 276.39 72.73 272.52 76.49 270.35 83.31 266.41 89.56 270.04 93.31 272.22 100.05 276.14"/><polygon class="cls-10" points="100.05 276.14 100.13 282.04 82.83 292.02 82.76 286.12 100.05 276.14"/></g><polygon class="cls-3" points="76.02 282.2 76.02 284.34 76.02 302.24 72.27 300.07 72.27 282.16 72.27 280.02 76.02 282.2"/><polygon class="cls-31" points="93.29 300.19 89.53 302.36 89.53 284.38 89.53 282.21 93.29 280.04 93.29 282.21 93.29 300.19"/><polygon class="cls-31" points="99.08 282.65 97.35 281.54 95.32 287.74 95.32 283.1 95.32 278.91 99.08 276.74 99.08 280.93 99.08 282.65"/><polygon class="cls-4" points="93.29 280.04 89.53 282.21 82.76 278.31 79 276.14 72.73 272.52 76.49 270.35 82.76 273.97 86.52 276.14 93.29 280.04"/><polygon class="cls-4" points="99.08 276.74 95.32 278.91 81.82 277.21 85.58 275.04 99.08 276.74"/><polygon class="cls-4" points="93.31 272.22 86.52 276.14 82.76 278.31 76.02 282.2 72.27 280.02 79 276.14 82.76 273.97 89.56 270.04 93.31 272.22"/><g class="cls-8"><g class="cls-8"><g class="cls-50"><g class="cls-8"><path class="cls-3" d="M186.24,322.84l-3.71-2.15a7.31,7.31,0,0,0,.25-3.43,2.3,2.3,0,0,0-.93-1.63l3.71,2.16a2.3,2.3,0,0,1,.93,1.63A7.26,7.26,0,0,1,186.24,322.84Z" transform="translate(-91.89 -55.58)"/></g></g></g><g class="cls-8"><g class="cls-8"><path class="cls-3" d="M175.66,329.59v.52l1.67,1a1.46,1.46,0,0,0,1,.06Z" transform="translate(-91.89 -55.58)"/><path class="cls-3" d="M180.25,324.68c-.32.39-.67.78-1,1.16a15.07,15.07,0,0,1-3.15,2.56l-.4.22v1l2.67,1.55.46-.12a5.63,5.63,0,0,0,1-.46,15.75,15.75,0,0,0,3.15-2.56c.37-.39.72-.78,1-1.17Z" transform="translate(-91.89 -55.58)"/><path class="cls-3" d="M184,326.83l-3.71-2.15a12,12,0,0,0,2.28-4l3.71,2.15A12,12,0,0,1,184,326.83Z" transform="translate(-91.89 -55.58)"/></g></g><g class="cls-8"><g class="cls-8"><path class="cls-4" d="M179.72,322.57a17.45,17.45,0,0,1,1.55-2.25l-3.71-2.16a18.3,18.3,0,0,0-1.55,2.26,26.35,26.35,0,0,0-2.56,6.09l2.21,1.57v2.07l1.65,1a.74.74,0,0,1-.21-.18,1.86,1.86,0,0,1-.13-1.47A25.12,25.12,0,0,1,179.72,322.57Z" transform="translate(-91.89 -55.58)"/><path class="cls-4" d="M181.27,320.32l-3.71-2.16c.32-.38.64-.74,1-1.06l.07-.07a8.51,8.51,0,0,1,1.56-1.23,2.66,2.66,0,0,1,.81-.33l3.71,2.15a2.66,2.66,0,0,0-.81.33,8.63,8.63,0,0,0-1.56,1.24l-.07.06A12.78,12.78,0,0,0,181.27,320.32Z" transform="translate(-91.89 -55.58)"/><path class="cls-4" d="M184.68,317.62,181,315.47a1.08,1.08,0,0,1,.47,0,1.11,1.11,0,0,1,.43.15l3.71,2.15a1.57,1.57,0,0,0-.43-.15A1.51,1.51,0,0,0,184.68,317.62Z" transform="translate(-91.89 -55.58)"/></g></g><path class="cls-31" d="M186.51,319.4a7.48,7.48,0,0,1-.24,3.44,13.7,13.7,0,0,1-3.34,5.18,15.52,15.52,0,0,1-3.16,2.57,6.06,6.06,0,0,1-1,.46c-.83.28-1.4.24-1.68-.12a1.86,1.86,0,0,1-.13-1.47,25.12,25.12,0,0,1,2.75-6.89,15.8,15.8,0,0,1,2.52-3.32l.07-.06a8.63,8.63,0,0,1,1.56-1.24,2.12,2.12,0,0,1,1.28-.35C185.82,317.71,186.31,318.34,186.51,319.4Zm-.27,3.44a7.26,7.26,0,0,0,.25-3.42c-.21-1.05-.69-1.68-1.35-1.78a2,2,0,0,0-1.27.34,8.59,8.59,0,0,0-1.55,1.23l-.07.07a15.3,15.3,0,0,0-2.51,3.3,25.09,25.09,0,0,0-2.74,6.87,1.82,1.82,0,0,0,.12,1.45c.28.35.84.39,1.67.12a5.63,5.63,0,0,0,1-.46,15.75,15.75,0,0,0,3.15-2.56A13.52,13.52,0,0,0,186.24,322.84Z" transform="translate(-91.89 -55.58)"/></g><g class="cls-8"><g class="cls-8"><path class="cls-3" d="M171.9,325.09l3.71,2.16a4.46,4.46,0,0,1,1.78,1.85c.43.85,0,2-1.27,3.39l-3.71-2.16c1.27-1.4,1.7-2.54,1.27-3.38A4.48,4.48,0,0,0,171.9,325.09Z" transform="translate(-91.89 -55.58)"/><g class="cls-51"><g class="cls-8"><path class="cls-3" d="M176.12,332.49l-3.71-2.16q.19-.21.36-.42l3.71,2.15Z" transform="translate(-91.89 -55.58)"/><path class="cls-3" d="M176.48,332.06l-3.71-2.15c1-1.21,1.3-2.2.91-3a4.48,4.48,0,0,0-1.78-1.86l3.71,2.16a4.46,4.46,0,0,1,1.78,1.85C177.78,329.86,177.47,330.86,176.48,332.06Z" transform="translate(-91.89 -55.58)"/></g></g></g><g class="cls-8"><path class="cls-3" d="M168.86,335.31l-3.71-2.15a4,4,0,0,0,3.3-.18,10.63,10.63,0,0,0,1.49-.71,10.83,10.83,0,0,0,2.47-1.94l3.71,2.16a11.08,11.08,0,0,1-2.47,1.93,10.7,10.7,0,0,1-1.49.72A3.94,3.94,0,0,1,168.86,335.31Z" transform="translate(-91.89 -55.58)"/><g class="cls-52"><g class="cls-8"><path class="cls-3" d="M168.86,335.31l-3.71-2.15a3.05,3.05,0,0,0,2.13.18l3.71,2.15A3,3,0,0,1,168.86,335.31Z" transform="translate(-91.89 -55.58)"/><path class="cls-3" d="M171,335.49l-3.71-2.15a7.72,7.72,0,0,0,1.17-.36,10.63,10.63,0,0,0,1.49-.71,10.83,10.83,0,0,0,2.47-1.94l3.71,2.16a11.08,11.08,0,0,1-2.47,1.93,10.7,10.7,0,0,1-1.49.72A6.65,6.65,0,0,1,171,335.49Z" transform="translate(-91.89 -55.58)"/></g></g></g><g class="cls-8"><path class="cls-4" d="M168.84,335.35l-3.71-2.16a1.57,1.57,0,0,1-.38-.3,3.84,3.84,0,0,1-.83-2.53,6.25,6.25,0,0,1,.81-3.18,5.9,5.9,0,0,1,2-2,4.47,4.47,0,0,1,.6-.28,5.43,5.43,0,0,1,3.58-.25,6.1,6.1,0,0,1,1,.44l3.71,2.16a5.36,5.36,0,0,0-1-.45,5.44,5.44,0,0,0-3.58.26,3.5,3.5,0,0,0-.6.28,5.86,5.86,0,0,0-2,2,6.2,6.2,0,0,0-.8,3.19,3.81,3.81,0,0,0,.82,2.53A1.86,1.86,0,0,0,168.84,335.35Z" transform="translate(-91.89 -55.58)"/><g class="cls-53"><g class="cls-8"><path class="cls-4" d="M168.84,335.35l-3.71-2.16a1.57,1.57,0,0,1-.38-.3,3.84,3.84,0,0,1-.83-2.53,6.25,6.25,0,0,1,.81-3.18,5.15,5.15,0,0,1,.47-.68l3.71,2.16a5.06,5.06,0,0,0-.47.67,6.2,6.2,0,0,0-.8,3.19,3.81,3.81,0,0,0,.82,2.53A1.86,1.86,0,0,0,168.84,335.35Z" transform="translate(-91.89 -55.58)"/><path class="cls-4" d="M168.91,328.66l-3.71-2.16a6.25,6.25,0,0,1,1.57-1.35,4.47,4.47,0,0,1,.6-.28,10.55,10.55,0,0,1,1.14-.32l3.71,2.16a8.26,8.26,0,0,0-1.14.32,3.5,3.5,0,0,0-.6.28A5.87,5.87,0,0,0,168.91,328.66Z" transform="translate(-91.89 -55.58)"/><path class="cls-4" d="M172.22,326.71l-3.71-2.16a4.51,4.51,0,0,1,2.44.07,6.1,6.1,0,0,1,1,.44l3.71,2.16a5.36,5.36,0,0,0-1-.45A4.52,4.52,0,0,0,172.22,326.71Z" transform="translate(-91.89 -55.58)"/></g></g></g><path class="cls-31" d="M177.42,329.08c.43.86,0,2-1.29,3.43a10.68,10.68,0,0,1-2.48,1.94,10.81,10.81,0,0,1-1.5.72c-1.68.66-3,.61-3.69-.12a3.81,3.81,0,0,1-.82-2.53,6.2,6.2,0,0,1,.8-3.19,5.86,5.86,0,0,1,2-2,3.5,3.5,0,0,1,.6-.28,5.44,5.44,0,0,1,3.58-.26A4.74,4.74,0,0,1,177.42,329.08Zm-1.3,3.41c1.27-1.4,1.7-2.54,1.27-3.39a4.73,4.73,0,0,0-2.75-2.29,5.46,5.46,0,0,0-3.57.25,4.39,4.39,0,0,0-.59.28,5.84,5.84,0,0,0-2,2,6.09,6.09,0,0,0-.8,3.16,3.83,3.83,0,0,0,.82,2.52c.7.73,2,.77,3.68.12a10.7,10.7,0,0,0,1.49-.72A11.08,11.08,0,0,0,176.12,332.49Z" transform="translate(-91.89 -55.58)"/></g></g></g></svg>